<?xml version="1.0" encoding="utf-8"?>
<!-- Generator: Adobe Illustrator 22.1.0, SVG Export Plug-In . SVG Version: 6.00 Build 0)  -->
<svg version="1.1" id="Calque_3" xmlns="http://www.w3.org/2000/svg" xmlns:xlink="http://www.w3.org/1999/xlink" x="0px" y="0px"
	 viewBox="0 0 93.1 144.8" style="enable-background:new 0 0 93.1 144.8;" xml:space="preserve">
<style type="text/css">
	.st0{fill:#72448D;}
	.st1{fill:#794E93;}
</style>
<path class="st0" d="M72.1,95.8c2.8-1.9,2.7-3.4,2.7-4.8c-0.4-6-6.1-9-9.8-8.9c-2.8,5.3-3.4,13,2.6,15c1.7,0.3,3.3-0.6,3.3-0.6
	c0.1-2.9,1.3-6.2-3.3-10.5C72.9,88.7,72.1,95.8,72.1,95.8z"/>
<g>
	<circle class="st1" cx="39.7" cy="67.9" r="3.9"/>
	<circle class="st1" cx="53.5" cy="63.8" r="2.4"/>
	<path class="st1" d="M51.7,73c-3.9,0-7,3.1-7,7c0,3.9,3.1,7,7,7s7-3.1,7-7C58.7,76.1,55.5,73,51.7,73z M51.7,84.4
		c-2.4,0-4.4-2-4.4-4.4c0-2.4,2-4.4,4.4-4.4s4.4,2,4.4,4.4C56.1,82.4,54.1,84.4,51.7,84.4z"/>
	<path class="st1" d="M46.1,49.5c-3.1,0-5.5,2.5-5.5,5.5s2.5,5.5,5.5,5.5s5.5-2.5,5.5-5.5S49.1,49.5,46.1,49.5z M46.1,57.9
		c-1.6,0-2.9-1.3-2.9-2.9s1.3-2.9,2.9-2.9S49,53.4,49,55S47.7,57.9,46.1,57.9z"/>
	<path class="st1" d="M41.4,15.8c-3.5,0-6.3,2.8-6.3,6.3s2.8,6.3,6.3,6.3s6.3-2.8,6.3-6.3S44.9,15.8,41.4,15.8z M41.4,25.9
		c-2,0-3.7-1.7-3.7-3.7c0-2,1.7-3.7,3.7-3.7c2,0,3.7,1.7,3.7,3.7C45.1,24.2,43.4,25.9,41.4,25.9z"/>
	<circle class="st1" cx="55.4" cy="15.8" r="3.8"/>
	<circle class="st1" cx="47.4" cy="3.3" r="2.5"/>
</g>
<path class="st0" d="M56.8,52.2l-0.1-11.2h3v-7h-27V41h3V53c0,0-11.5,1.7-23.3,14.1C0.9,79.3,0.9,100.8,0.9,100.8s1-38.5,36.8-45.8
	V41h16.9v15.3c0,0,26.6,4.4,31.4,34.2c-11.9,4.5-14.8,12.4-9.1,25.7c0,0,0.7-0.8,1.4-1.8c-0.6-1.1-1.8-3.6-0.9-10.1l1.6,8.6
	c0,0,1.5-1.8,2.5-3.4c0,0-2.9-4.8-1.8-11.3c0,0,0.7,6.6,2.6,9.6c2.1-1.9,1.5-5.3,1.5-5.3s-2.3-3.3-1.6-6.4c0,0,1,3.6,2.4,5.3
	c1,0.1,0.8-1.9,2-5.4C85.8,123.8,65,133.8,57,136.1c-3.1,0.9-22.6,3.8-31.8-6.3c2.9,2,17.4,8.9,30.2,3.8c-1.8-0.9-3.3-1.8-11-6.9
	c-15.2-0.5-23-1.7-30.3-11.2c3.1,2.3,10.9,8.2,27,8.3c0,0-2.1-1.9-10.5-9.5c-2.5,0.6-14.4-1.5-18.6-8.6c0,0,9.1,6.4,17.3,6.8
	c0,0-3.9-3.9-13.7-17.4c0,0,5.5,5.6,14.3,15.1c0.1-4.3,0.4-10.1-3.9-15.9c3.9,3.6,8.6,10.4,5.8,18.3c0,0,1.7,1.4,10.7,8.6
	c0.1-5.8,2.2-12.2-5.1-22.6c5.8,4.6,10.9,14.4,7.2,24.7c0,0,2.8,2,10.9,6.8c1-4.4,3.5-11.3-3.6-21.8c6.9,6.1,8.9,15.5,6.7,24.1
	c8.6-2.1,13.9-8.9,14-13.8c0-3.6,0.6-7.1-6.8-16.8l-0.3,5.4c0,0-2.4-6.6-8.7-11.5l-0.1,4.1c0,0-4.9-5.8-10.2-7.5v3.4
	c0,0-6-5.6-13.5-6c0,0,1,2.4,0.7,3.5c0,0-5.3-4.6-11.7-5.1c0,0,0.4,2.3,0.4,3.7c-1.4-1.4-6.9-3-12.1-3.1c0,0-1.9,3.9-0.9,11L6,97.6
	c0,0,0,7.1,2,11.3l-3.1-1.4c0,0-1.5,5.8,5.5,12.4H6.2c0,0,1.1,4.9,8.4,9.6h-3.9c0,0,4.9,6.6,15.6,9l-7.1-0.4c0,0,17,10.4,39.7,3.7
	c31.7-11,33.2-37.9,33.2-44.8C92.1,89,88.7,60.8,56.8,52.2z M35.3,38.5v-2.1h22v2.1H35.3z"/>
</svg>
