<?xml version="1.0" encoding="utf-8"?>
<!-- Generator: Adobe Illustrator 22.1.0, SVG Export Plug-In . SVG Version: 6.00 Build 0)  -->
<svg version="1.1" id="Calque_1" xmlns="http://www.w3.org/2000/svg" xmlns:xlink="http://www.w3.org/1999/xlink" x="0px" y="0px"
	 viewBox="0 0 600 280.8" style="enable-background:new 0 0 600 280.8;" xml:space="preserve">
<style type="text/css">
	.st0{fill:#FFFFFF;}
</style>
<g>
	<g>
		<path class="st0" d="M187.6,120.2c0.3-0.5,0.4-0.8,0.5-0.9l1.7-1c0.4-0.3,1.2-1.2,2.3-2.8c0.1-0.2,0.6-0.5,1.3-1.1
			c0.4-0.3,0.8-0.7,1.1-1.3c0-0.3-0.1-0.7-0.1-0.9c0-0.8,0.5-1.7,1.6-2.6c1.5-1.4,2.3-2.3,2.6-2.8l3.2-5.8c0,0,0.4-0.2,1.1-0.3
			l0.2-0.2c0-0.4-0.1-0.8-0.1-1.1c0-0.5,0-0.7,0.1-0.9l1.4-1.9l5.7-8.9l0.1-0.6c-0.3-0.2-0.5-0.3-0.7-0.3c-0.1,0-0.3,0-0.6,0.1
			c-0.2,0-0.3,0.1-0.6,0.1c-0.3,0-0.7,0-1.1-0.1c-0.2-0.7-0.3-1.3-0.3-1.6c0-0.2,0.2-0.6,0.7-1.3c0.3-1,0.6-1.8,1-2.3
			c0.6-0.8,1-1.5,1.4-2c0.8,0,1.3,0.1,1.6,0.2l2.5,0.9l0.2-0.1c0.1-0.4,0.2-0.7,0.2-0.9c0-0.3-0.1-0.7-0.3-1.3
			c0.7-0.5,1.1-0.8,1.2-1l1.2-2.2c0.3-0.5,1-1.4,2.2-2.5c0.1-0.9,0.2-1.5,0.4-1.7c0.1-0.2,0.9-0.9,2.2-2.1c0.1-0.2,0.6-1.2,1.3-3.1
			c0.2-0.5,1.3-2.1,3.2-4.9l3.8-7.4l1.6-1.7c0.1-0.7,0.2-1.1,0.2-1.2c0.1-0.1,0.6-0.9,1.6-2.4c0.1-0.1,0.1-0.2,0.1-0.4
			c0-0.3,0-0.6-0.1-0.9c0.3-0.3,0.7-0.8,1.1-1.6c0.3-0.7,0.7-1.4,1.1-2l1.2,1.7c0.2-0.5,0.3-0.8,0.3-1c0-0.3-0.2-0.8-0.5-1.4
			c0.4-0.9,0.7-1.5,0.9-1.7c0.7-1.1,1.1-1.7,1.1-1.9c0,0,0.1-0.5,0.1-1.3c0-0.1,0.2-0.5,0.6-1.3c0.2-0.2,0.5-1.2,1.2-2.8
			c0.1-0.2,0.3-0.7,0.6-1.6l2.5-0.2l-0.2-0.7l-1.5-0.7v-0.9c0.6-0.5,1-1,1.3-1.6l-0.6-0.6v-0.2c0.6-0.5,1.1-1.3,1.7-2.2
			c0.5-0.9,0.9-1.7,1.3-2.3c-0.3-0.5-0.5-1-0.5-1.3v-0.4v-0.6v-1.2l4.7-3.2l1.1,0.8c0.4-0.7,0.6-1.2,0.7-1.4c0.3-0.7,0.5-1,0.8-1
			c0.3,0,0.6,0.1,0.9,0.2c0.2-0.8,0.6-1.4,1.2-1.8c0.8-0.6,1.5-0.9,2.1-0.9c1.2,0,1.8,1.4,1.9,4.2c0.4,1.8,0.7,3.1,0.7,3.8
			c0.2,1.2,0.7,2.5,1.5,4c0.5,2,0.7,3.3,0.7,3.9c0,0.4,0,0.9,0,1.4l-2.3,1.2c0.3,0.8,0.7,1.2,1,1.4c0.2,0.1,1.1,0.3,2.6,0.8
			c0.7,0.2,1.5,1.4,2.3,3.4c0.6,1.4,0.9,2.3,0.9,2.6c0,0.2-0.2,0.7-0.7,1.4c0.6,0.6,1,1,1.2,1.2c1,0.8,1.5,1.4,1.6,1.6l0.7,1.8
			l1.2,2.9c0.1,0.2,0.2,0.9,0.3,1.9c1.2,1.2,1.9,2.5,2,3.8c0.1,1,0.2,1.6,0.2,1.6l1.3,2c0.2,0.3,1,1.9,2.4,4.8l-1.3,0.8
			c0.2,0.7,0.5,1.3,0.9,1.6l0.9,0.2l-0.2,1.3c3.9,3.7,5.9,7.3,6,10.9c0.2,0.8,1,2.6,2.5,5.4c2.1,3.9,3.2,6.2,3.5,6.8
			c0.3,0.8,0.7,1.7,1.3,2.5l3.6,7.9l-0.1,1.7c2.3,1.2,3.5,2.4,3.5,3.5c0,0.5-0.6,1.1-1.7,1.6c0.3,0.7,0.6,1.1,0.9,1.2
			c0.1,0.1,0.5,0.2,1.2,0.5c0.5,0.2,1.1,0.9,1.7,2.1c0.3,0.6,0.8,2,1.5,4.1c1.6,2.5,2.7,4.2,3.1,4.9c-0.7,0.6-1.1,1.2-1.1,1.8
			c0,0.2,0,0.5,0.1,0.9c-1.3,0.6-2.2,0.9-2.8,1c-0.2,0.1-0.9,0.1-2,0.2c-0.5,0-1.9,0.5-4,1.4c-1-2.3-1.6-3.9-1.8-4.8
			c-0.2-0.8-0.5-1.7-1.1-2.6c-1-2.8-1.6-4.4-1.6-4.8c0-0.3,0-0.6,0.1-0.9c-0.7-0.7-1.1-1.2-1.2-1.7c0-0.1-0.1-0.7-0.1-1.8
			c-0.1-0.4-0.1-0.7-0.1-0.9c0-0.5,0.2-1.1,0.6-1.9l-1.7-1.6c0.5-0.6,0.8-1,1-1.2c0.4-0.3,0.6-0.6,0.6-0.8c0-0.2,0-0.5-0.1-0.8
			l-2.8,0.2c-0.9-1.2-1.6-2.2-1.9-2.9c-0.2-0.5-0.5-1.7-0.9-3.6l-0.9-2c-0.5-2.5-0.8-3.9-1-4.4c-0.7-1.4-1.7-2.1-3.2-2.1
			c-1.3,0-2.1,1.4-2.2,4.3c-0.3,0.1-0.5,0.2-0.6,0.2c-0.4,0-1-0.3-1.6-0.8c-1.1-0.8-2.3-1.3-3.5-1.5c-0.6-0.1-1.4-0.4-2.4-0.9
			c-1.4-0.7-2.5-1-3.3-1c-0.3,0-1.4,0.2-3.2,0.6l-1.7-0.3l-1.8,0.2h-1.6l-1.6,0.2l-2.7,0.1c-1.2,0-1.9,0.1-2.3,0.1l-0.9,0.1
			l-3.6-0.8l-1.7,0.3c-1.2-0.3-1.9-0.5-2-0.5c-0.2,0-1.2,0.2-2.8,0.6c-1.2,0.3-2.2,0.4-3.2,0.5l-1.6-1.8c-1.2,0.2-2.5,0.7-3.7,1.3
			c-0.1,0.1-1,0.2-2.5,0.5c-0.6,0.1-0.9,0.1-0.9,0.1c-0.5,0-1-0.1-1.7-0.2c-1-0.2-1.8-0.3-2.5-0.3c-0.5,0-1.5,0.2-2.9,0.5
			c-0.8,0.2-1.6,0.4-2.5,0.5c-0.4,0.7-0.7,1.2-0.8,1.4c-0.6,1.2-1.3,2.3-2.2,3.5c-0.7,1-1.6,2.6-2.7,4.5l-1-0.2
			c-0.3,0.3-0.5,0.6-0.5,0.9c0,0.2,0.1,0.6,0.2,1.2c0,0.2,0.1,0.6,0.1,1c-0.7,0.8-1.1,1.4-1.2,1.6l-2.8,5.6c-0.5,0.8-1,1.7-1.6,2.6
			l-0.5,0.8l-3.2,2c-0.2,0.1-0.2,0.3-0.2,0.6c0,0.4,0.4,1,1.3,1.7l-0.9,2.7c-0.9,0.3-1.6,0.7-1.9,0.9c-0.5,0.4-1.1,1.2-1.7,2.5
			c-1.1,0.5-1.8,0.8-2.1,1c-0.5,0.4-0.9,0.6-1.2,0.6c-0.1,0-0.5-0.2-1.2-0.6c-0.2-0.1-0.4-0.2-0.7-0.2c-0.2,0-0.5,0-0.8,0.1
			C189.3,121,188.5,120.5,187.6,120.2z M219.4,80.4c0.8-0.5,1.4-0.7,1.6-0.7c0.3,0,0.7,0.2,1.2,0.7l1.8-0.2l0.7,1.2
			c0.8-0.3,1.9-0.4,3.3-0.4h5.1c1,0,2.2,0.3,3.9,0.9c1.7,0.1,2.9,0.2,3.7,0.4c0.8,1.2,1.7,1.8,2.8,1.8l3.6-1.8l2,0.4h3.3l1.3,0.3
			l1.7-0.2l1.6,0.2l1.6-0.1l1.4,0.4l3.4-0.6l2.6-0.2l5.1-0.5l4.3,0.3c0.6,0,0.9-0.2,0.9-0.7c0-0.2-0.2-0.8-0.5-2
			c-0.1-0.3-0.1-0.8-0.2-1.4c-0.7-0.5-1.3-1.1-1.6-1.7c-1.3-2.7-2.1-4.1-2.3-4.1c-0.4-0.5-0.7-1.2-0.9-1.9c-0.2-0.7-0.5-1.3-0.9-2.1
			c0.2-1,0.3-1.8,0.3-2.5c0-0.4-0.2-1-0.5-1.9l-2,0.3c-0.4-0.9-0.7-1.5-0.7-1.7l-0.4-1.4l-1.3-1.8l-1.4-2.5l-0.6-1.1
			c-0.3-1.6-0.8-3-1.5-4.3c-0.5-1-0.8-1.8-0.7-2.5l1.2-0.5c-0.4-0.6-0.9-0.9-1.4-0.9c-0.2,0-0.5,0-0.8,0.1c-0.4-0.8-0.7-1.3-0.8-1.6
			c-0.9-1.3-1.3-2-1.4-2.1l-0.3-2.2l-0.9-1.5l-0.9-2l-1.9-2.4l-1-3.3l-1-1.7c-0.5-1-1.1-2-1.7-2.9c-1,0.6-1.6,1.2-2,1.8
			c-0.7,1.3-1,2.4-0.9,3.5h-0.3c-0.7,1.1-1.5,2.4-2.5,3.9l-3.3,6.3c-0.6,1.1-1,2-1.2,2.8c-0.7,0.4-1.1,1-1.3,1.6
			c-0.7,1.6-1.8,2.7-3.1,3.2l0.3,1.6l-0.9,0.4h-0.1c-0.7-0.1-1.4-0.1-1.9-0.2l-0.5,0.7l1.5,0.9c-0.5,1.5-1.1,3-2,4.5
			c-1.8,3.5-3.5,5.7-5.1,6.7c-0.4,0.2-0.6,0.8-0.7,1.8c0,0.7-0.2,1.4-0.5,2.1l-1.6,2.9l-1.3,1.4l-0.7,1.6c-0.9,1.4-1.4,2.4-1.6,2.9
			C219.9,79.1,219.6,79.8,219.4,80.4z"/>
		<path class="st0" d="M291.8,126.3l-0.7-1.6c-1.1-2.4-1.7-4.1-1.9-5.2c-0.1-0.6-0.4-1.3-0.9-2l-0.1-0.2l-0.1-0.2
			c-1.7-4.6-1.7-5-1.7-5.4c0-0.1,0-0.2,0-0.3c-0.6-0.6-0.9-1.3-1.1-1.9c-0.1-0.2-0.1-0.6-0.2-2.1c-0.1-0.5-0.1-0.8-0.1-1.1
			c0-0.4,0.1-0.9,0.2-1.4l-2-1.8l0.7-0.9l-0.5,0l-0.6-0.8c-1-1.3-1.7-2.4-2.1-3.2l0-0.1c-0.2-0.4-0.4-1.2-1-3.8l-0.9-2l0-0.2
			c-0.6-3.2-0.8-3.8-0.9-3.9c-0.4-0.8-0.8-1.1-1.6-1.1c-0.1,0.2-0.5,0.8-0.6,2.6l-0.1,1.2l-1.1,0.4c-0.5,0.2-0.8,0.3-1.2,0.3
			c-0.8,0-1.7-0.4-2.7-1.2c-0.9-0.6-1.8-1-2.7-1.2c-0.8-0.1-1.7-0.4-2.9-1c-1.5-0.7-2.2-0.8-2.6-0.8c-0.1,0-0.5,0-2.8,0.5l-0.3,0.1
			L258,88l-1.8,0.2h-1.4l-1.6,0.2l-2.7,0.1c-1.1,0-1.9,0.1-2.3,0.1l-1.1,0.1l-3.5-0.8l-1.8,0.4l-0.4-0.1c-0.9-0.3-1.4-0.4-1.6-0.4
			c-0.3,0.1-0.9,0.2-2.3,0.6l-0.1,0c-1.3,0.3-2.4,0.5-3.4,0.6l-0.9,0.1l-1.5-1.7c-0.7,0.2-1.4,0.5-2.2,0.9c-0.3,0.2-0.8,0.3-3.2,0.7
			c-1,0.1-1.1,0.1-1.2,0.1c-0.6,0-1.2-0.1-2-0.2l-0.1,0c-0.8-0.2-1.6-0.3-2.2-0.3c-0.1,0-0.7,0-2.4,0.5c-0.6,0.2-1.3,0.3-1.9,0.4
			c-0.2,0.3-0.3,0.5-0.3,0.5c-0.6,1.3-1.4,2.5-2.4,3.7c-0.6,1-1.5,2.5-2.6,4.4l-0.6,1.1l-0.4-0.1c0,0.2,0.1,0.5,0.1,0.7l0.1,0.8
			l-0.5,0.6c-0.7,0.8-0.9,1.1-1,1.2l0,0l-2.8,5.7c-0.5,0.8-1,1.7-1.6,2.6l0,0l-0.7,1.1l-2.4,1.5c0.1,0.1,0.1,0.1,0.2,0.2l0.9,0.8
			l-1.5,4.7l-0.8,0.3c-1.1,0.4-1.4,0.6-1.4,0.7l-0.1,0c0,0-0.4,0.3-1.1,1.8l-0.3,0.7l-0.7,0.3c-1.4,0.6-1.7,0.8-1.7,0.8
			c-0.9,0.6-1.6,0.9-2.3,0.9c-0.5,0-1-0.2-1.9-0.7c-0.1,0-0.3,0-0.6,0l-0.9,0.1l-0.6-0.6c-0.5-0.5-1.1-0.9-1.7-1.1l-2.1-0.6l1-1.9
			c0.4-0.8,0.6-1.1,0.8-1.3l0.1-0.1l1.8-1.1c0.1-0.1,0.6-0.6,1.9-2.3c0.2-0.3,0.6-0.6,1.7-1.5c0.1-0.1,0.2-0.2,0.3-0.3
			c0-0.2,0-0.3,0-0.5c0-1.3,0.7-2.6,2.1-3.9c1.7-1.6,2.2-2.2,2.3-2.4l3.2-5.9l0.2-0.2c0.2-0.2,0.4-0.3,0.7-0.5
			c0-0.7,0.1-1.3,0.4-1.8l0.1-0.1l1.4-1.8l4.4-6.9c-0.1,0-0.2,0-0.3,0l-1.2-0.1l-0.4-1.1c-0.3-0.9-0.4-1.6-0.4-2.1
			c0-0.6,0.2-1.2,0.9-2.1c0.3-1,0.7-1.8,1.1-2.5l0-0.1c0.6-0.8,1-1.4,1.4-1.9l0.5-0.8h0.9c1,0,1.7,0.1,2.2,0.3l0.1,0l-0.2-0.6
			l1.1-0.8c0.4-0.2,0.5-0.4,0.6-0.5l1.1-2.1c0.3-0.6,1-1.4,2.1-2.5c0.1-0.9,0.3-1.4,0.6-1.8c0.1-0.2,0.3-0.4,2.2-2.2
			c0.1-0.3,0.4-1,1.1-2.7l0-0.1c0.2-0.4,0.7-1.4,3.2-5.1l3.9-7.5l1.3-1.4c0.1-0.7,0.2-1.1,0.4-1.4c0.1-0.1,0.5-0.8,1.4-2.1
			c0-0.1,0-0.2,0-0.3l-0.2-1l0.8-0.7c0,0,0.3-0.3,0.7-1.1c0.4-0.8,0.8-1.5,1.2-2.1l1.4-2.2l0.1,0.2c0.1-0.2,0.2-0.4,0.3-0.5
			c0.4-0.6,0.6-1,0.7-1.2v-0.4l0.1-0.1c0-0.1,0-0.3,0-0.5c0-0.5,0.2-0.9,0.9-2.2l0-0.1c0.1-0.1,0.3-0.6,1-2.5
			c0.1-0.2,0.2-0.6,0.7-1.7l0.4-1l0.2,0v-1.8l0.6-0.5v-1.8l0.6-0.5c0.4-0.4,0.9-1,1.3-1.8c0.3-0.6,0.6-1.1,0.9-1.5
			c-0.2-0.4-0.2-0.8-0.2-1.2v-3.1l6.5-4.5l0.4,0.3c0.5-0.9,1.2-1.4,2-1.5c0.3-0.5,0.7-0.9,1.2-1.2c1.1-0.8,2.1-1.2,3.1-1.2
			c2.2,0,3.5,1.9,3.7,5.7c0.4,1.8,0.6,3.1,0.7,3.9c0.1,0.9,0.6,2.1,1.3,3.3l0.1,0.2l0.1,0.2c0.7,2.8,0.8,3.8,0.8,4.3v2.5l-0.8,0.4
			c0.2,0.1,0.5,0.2,0.8,0.2c1.3,0.4,2.4,1.8,3.4,4.4c0.8,2,1,2.7,1,3.2c0,0.3-0.1,0.7-0.3,1.1c0.1,0.1,0.1,0.1,0.1,0.1l0.1,0.1
			c1.5,1.3,1.8,1.8,2,2.2l0.7,1.8l1.1,2.8c0.2,0.3,0.3,0.8,0.4,1.9c1.2,1.4,1.9,2.8,2.1,4.3c0.1,0.6,0.1,1,0.1,1.2l1.1,1.8
			c0.2,0.3,1,1.9,2.4,4.8l0.7,1.5l-0.6,0.4l0.7,0.1l-0.3,2c3.8,3.8,5.8,7.6,5.9,11.3c0.1,0.4,0.5,1.5,2.3,4.7
			c2.8,5.3,3.4,6.6,3.6,7.1c0.3,0.7,0.6,1.4,1.1,2.1l0.1,0.1l3.8,8.4l-0.1,1c1.7,1,3.4,2.5,3.4,4.5c0,0.7-0.2,1.2-0.6,1.7
			c1,0.4,1.7,1.3,2.5,2.9c0.2,0.4,0.6,1.3,1.5,4.2c1.6,2.5,2.6,4.1,3,4.9l0.7,1.3l-1.2,0.9c-0.4,0.3-0.4,0.5-0.4,0.5
			c0,0.1,0,0.3,0,0.7l0.1,1.3l-1.2,0.5c-1.4,0.6-2.3,1-3,1.1c-0.4,0.1-0.9,0.2-2.4,0.2c-0.1,0-0.8,0.2-3.5,1.3L291.8,126.3z
			 M291.5,115.8c0.6,1,1,2.1,1.2,3c0.1,0.4,0.3,1.3,1,2.9c1.8-0.7,2.5-0.8,3-0.9l0.1,0c1,0,1.4-0.1,1.5-0.1l0,0l0.1,0
			c0.1,0,0.5-0.1,1.3-0.5c0-0.5,0.2-1.1,0.7-1.8c-0.5-0.9-1.3-2.1-2.4-3.7l-0.1-0.2l-0.1-0.2c-0.9-2.8-1.3-3.6-1.4-3.8l0,0
			c-0.4-0.9-0.7-1.2-0.8-1.3c-0.8-0.3-1.2-0.4-1.5-0.6c-0.6-0.4-1.1-1-1.5-1.9l-0.7-1.6l1.6-0.8c0.2-0.1,0.4-0.2,0.5-0.3
			c-0.2-0.3-0.9-0.9-2.3-1.7l-1-0.5l0.2-2.4l-3.3-7.3c-0.6-0.9-1-1.8-1.4-2.7c-0.1-0.3-0.6-1.4-3.4-6.6c-2.1-3.8-2.5-5.1-2.7-5.9
			l0-0.3c-0.1-3-1.9-6.3-5.5-9.6l-0.7-0.6l0.1-0.7l-0.1-0.1c-0.6-0.6-1.1-1.3-1.4-2.4l-0.4-1.3l1.1-0.7c-0.9-1.8-1.5-2.9-1.6-3.3
			l-1.5-2.3v-0.5c0-0.2-0.1-0.7-0.2-1.5c-0.1-0.9-0.6-1.8-1.5-2.8l-0.4-0.5l0-0.6c-0.1-0.9-0.1-1.2-0.2-1.3l-1.8-4.5
			c-0.1-0.1-0.4-0.4-1.1-1.1c-0.2-0.1-0.5-0.4-1.3-1.3l-1-1l0.8-1.2c0.2-0.3,0.3-0.5,0.4-0.6c-0.1-0.3-0.3-0.8-0.7-1.8
			c-0.7-1.8-1.2-2.3-1.3-2.4c-2.1-0.6-2.5-0.8-2.6-0.8l-0.1-0.1l-0.1-0.1c-0.6-0.4-1.1-1.1-1.7-2.2l-0.7-1.5l2.8-1.5v-0.3
			c0-0.2,0-0.9-0.6-3.3c-0.9-1.6-1.4-3.1-1.6-4.5l0-0.1c0-0.4-0.2-1.3-0.6-3.5l0-0.2l0-0.2c-0.1-1.4-0.3-2.1-0.4-2.4
			c-0.2,0.1-0.4,0.2-0.8,0.4l-0.1,0.1c-0.1,0.1-0.3,0.2-0.4,0.7l-0.5,2.1l-1.5-0.7c-0.1,0.3-0.3,0.6-0.6,1.2l-1,1.8l-1.7-1.3l-2.9,2
			v1.2c0,0,0.1,0.2,0.2,0.5l0.5,0.9l-0.6,0.9c-0.4,0.6-0.8,1.3-1.3,2.2c-0.3,0.5-0.6,1-0.9,1.4l0.4,0.4l-0.6,1.2
			c-0.1,0.3-0.3,0.6-0.5,0.9l0.6,0.3l0.6,2.1l0.1-0.2c0.1-1,0.5-2,1-3.1c0.5-1,1.4-1.8,2.6-2.5l1.4-0.9l0.9,1.4
			c0.7,0.9,1.3,2,1.8,3.1l1,1.8l1,3.2l1.8,2.3l0.9,2.1l1,1.7l0.3,2.2c0.1,0.2,0.5,0.7,1.1,1.7c0.1,0.1,0.2,0.3,0.4,0.7
			c0.7,0.1,1.8,0.4,2.7,1.7l1.1,1.7l-1.7,0.8c0.1,0.2,0.2,0.4,0.3,0.6c0.8,1.3,1.3,2.9,1.6,4.5l0.5,0.8l1.4,2.5l1.4,2l0.5,1.7
			c0,0,0,0.1,0.1,0.3l2.1-0.3l0.5,1.4c0.4,1.1,0.6,1.9,0.6,2.5c0,0.6-0.1,1.4-0.2,2.2c0.4,0.7,0.6,1.3,0.8,2
			c0.1,0.4,0.3,0.8,0.4,1.1c0.6,0.6,1.3,1.9,2.6,4.5c0.2,0.4,0.6,0.7,1,1.1l0.7,0.5l0.1,0.9c0,0.6,0.1,0.9,0.1,1
			c0.5,1.7,0.6,2.1,0.6,2.4c0,0.8-0.4,1.6-1.2,2.1c2.1,0,3.8,1.1,4.7,3.1c0.2,0.4,0.5,1.3,1.1,4.6l0.9,2l0,0.2
			c0.5,2.4,0.7,3.1,0.8,3.3c0.2,0.3,0.5,0.9,1.1,1.8l3.3-0.3l0.4,1.5c0.1,0.5,0.2,0.9,0.2,1.2c0,0.6-0.3,1.3-0.8,1.8l1.4,1.3
			l-0.6,1.2c-0.4,0.8-0.4,1.1-0.4,1.1l0,0c0,0,0,0.1,0.1,0.5l0,0.3c0,1,0.1,1.3,0.1,1.5c0,0,0.2,0.3,0.7,0.8l0.6,0.6l-0.1,0.9
			c0,0.2,0,0.4,0,0.6C290.2,112,290.4,112.9,291.5,115.8z M298.2,120.8C298.2,120.8,298.2,120.8,298.2,120.8L298.2,120.8z
			 M192.5,120.3c0.1,0.1,0.2,0.1,0.2,0.1c0,0,0.1-0.1,0.1-0.1c0.2-0.2,0.7-0.5,1.8-1c0.6-1.3,1.2-2.1,1.9-2.6
			c0.4-0.3,0.9-0.5,1.5-0.8l0.3-0.8c-0.6-0.6-1.1-1.4-1.1-2.3c0-1.2,0.6-1.8,0.9-2.1l0.1-0.1l2.8-1.8l0.3-0.5
			c0.6-0.9,1.1-1.8,1.6-2.6l2.7-5.5c0.1-0.3,0.4-0.6,1-1.4c0,0,0-0.1,0-0.1c-0.1-0.7-0.2-1.2-0.2-1.5c0-0.3,0-0.5,0.1-0.8l-0.7,1
			l-1.2,1.6c0,0,0,0.1,0,0.1c0,0.3,0,0.6,0.1,0.9l0.1,0.8l-1.1,1.1l-0.4,0.1c-0.1,0-0.3,0.1-0.3,0.1l-2.9,5.3
			c-0.3,0.4-0.8,1.1-2.9,3.1l0,0c-0.8,0.7-1,1.1-1,1.3c0,0.2,0,0.4,0,0.7l0.1,0.5l-0.3,0.5c-0.4,0.8-1,1.5-1.6,1.9
			c-0.7,0.5-0.9,0.7-1,0.8c-1.6,2.2-2.2,2.8-2.6,3.1l-0.2,0.1c0,0,0,0,0,0C191.4,119.9,192,120,192.5,120.3z M290.1,111.8
			C290.1,111.8,290.1,111.8,290.1,111.8C290.1,111.8,290.1,111.8,290.1,111.8z M288.9,108.7L288.9,108.7
			C288.9,108.8,288.9,108.7,288.9,108.7z M288.9,108.6L288.9,108.6C288.9,108.6,288.9,108.6,288.9,108.6z M209.1,101.9L209.1,101.9
			C209.1,101.9,209.1,101.9,209.1,101.9z M209.7,85.1c0.7,0,1.3,0.4,1.8,0.7l0.9,0.7l-0.4,2l-4.4,6.9l0.7-0.7l0.7,0.2
			c0.9-1.5,1.6-2.6,2.1-3.5l0.1-0.2c0.8-1,1.5-2,2-3.1c0.1-0.2,0.3-0.6,0.9-1.5l0.5-0.8l0.9-0.1c0.8-0.1,1.5-0.2,2.2-0.4l0.1,0
			c2-0.5,2.9-0.6,3.3-0.6c0.8,0,1.8,0.1,2.8,0.3c0.5,0.1,1,0.1,1.3,0.1c0.1,0,0.4,0,0.8-0.1c1.4-0.2,1.9-0.3,2.1-0.3
			c1.3-0.7,2.7-1.2,4-1.4l1-0.2l1.7,1.9c0.6-0.1,1.3-0.2,2-0.4c1.8-0.5,2.5-0.6,2.9-0.7c0,0,0,0-0.1-0.1c-0.7-0.1-1.7-0.2-2.9-0.3
			l-0.2,0l-0.2-0.1c-1.8-0.6-2.8-0.7-3.3-0.8h-5.1c-1.5,0-2.3,0.2-2.7,0.3l-1.4,0.5l-0.8-1.4l-1.4,0.2l-0.6-0.6c0,0-0.1-0.1-0.1-0.1
			c-0.1,0.1-0.3,0.2-0.6,0.3l-4.4,2.4l1.9-4.6c0.3-0.6,0.5-1.3,0.7-1.9l0-0.1c0.1-0.4,0.5-1.1,1.7-3.1l0.4-0.8l-0.4,0.3
			c-1.6,1.4-1.8,1.9-1.8,2l-1.1,2.2c-0.1,0.3-0.4,0.6-0.7,0.9c0,0.2,0.1,0.4,0.1,0.6c0,0.4-0.1,0.8-0.2,1.4l-0.2,0.6l-1.5,1
			l-3.4-1.2c0,0,0,0-0.1,0c-0.2,0.3-0.5,0.7-0.8,1.1c-0.2,0.3-0.4,0.8-0.8,1.8l-0.1,0.3l-0.2,0.2c0,0,0,0,0,0.1
			C209.5,85.2,209.6,85.1,209.7,85.1z M273.9,88.3L273.9,88.3L273.9,88.3z M264.7,84.4c0.7,0.2,1.4,0.5,2.3,0.9
			c1.2,0.6,1.7,0.7,1.9,0.7l0.1,0c1.3,0.3,2.6,0.8,3.8,1.6c0.4-1.9,1.3-2.9,2.2-3.4l-4-0.3l-5,0.5L264.7,84.4z M276.7,87.3
			L276.7,87.3L276.7,87.3z M246.2,84.7l1.2,0.3l0.7,0c0.3,0,0.9,0,2.2-0.1l2.7-0.1l-1.1-0.3h-3.2l-1.5-0.3L246.2,84.7z M237.2,80.2
			c1.7,0.1,2.9,0.3,3.7,0.4l0.7,0.1l0.4,0.6c0.4,0.6,0.8,0.9,1,1l3.7-1.8l2.4,0.5h3.3l1.1,0.3l1.5-0.2l1.6,0.2l1.7-0.1l1.4,0.4
			l3.2-0.5l2.6-0.2l5.2-0.5l3.1,0.2c0-0.1,0-0.2-0.1-0.2l0-0.1c-0.1-0.2-0.1-0.5-0.2-0.9c-0.6-0.5-1.1-1.2-1.5-1.8l0,0
			c-0.8-1.7-1.3-2.6-1.6-3.1h0l-0.5-0.7c-0.5-0.7-0.9-1.5-1.1-2.5l0,0c-0.1-0.5-0.3-1-0.7-1.5l-0.4-0.6l0.1-0.7
			c0.2-0.8,0.2-1.6,0.3-2.1l-1.7,0.2l-0.6-1.2c-0.6-1.3-0.8-1.7-0.9-2l-0.3-1.1l-1.2-1.7l-2.2-3.9l-0.1-0.3
			c-0.2-1.4-0.7-2.6-1.3-3.7c-0.6-1.1-0.9-2-1-2.9l-0.4,0l-0.5-1.2c-0.5-1-0.7-1.3-0.7-1.3c-1.5-2.1-1.5-2.3-1.6-2.6l0-0.1l-0.3-2.1
			l-0.8-1.4l-0.8-1.8l-2-2.4l-1.1-3.5l-0.9-1.7c-0.2-0.3-0.3-0.6-0.5-0.9c-0.5,1-0.7,1.8-0.7,2.5l0.1,1.8h-1.2c-0.6,0.9-1.2,1.9-2,3
			l-3.3,6.3c-0.5,0.9-0.9,1.7-1,2.3l-0.2,0.7l-0.6,0.4c-0.5,0.3-0.5,0.5-0.5,0.6l-0.1,0.2c-0.7,1.5-1.6,2.7-2.8,3.4l0.3,1.6
			l-1.9,0.9l-0.2,0.5c-0.5,1.6-1.2,3.2-2.2,4.9c-1.9,3.6-3.7,6-5.5,7.2c0,0.1-0.1,0.3-0.1,0.6c0,0.9-0.3,1.8-0.7,2.7l0,0.1l-1.7,3.1
			l-1.3,1.4l-0.7,1.6c-0.5,0.8-0.9,1.4-1.1,1.8c0.2,0.1,0.4,0.2,0.5,0.3l2.2-0.3l0.6,1.1c0.7-0.1,1.5-0.2,2.4-0.2l5.2,0
			C234.1,79.3,235.5,79.6,237.2,80.2z M220.9,72.2c0,0.2-0.1,0.4-0.2,0.9l0,0.4l0.2-0.5l1.4-1.5l0.6-1.2l0,0.1l-0.1,0.1
			C221.6,71.5,221.1,71.9,220.9,72.2z M223.9,68.1c-0.2,0.5-0.4,0.9-0.5,1.1l0.2-0.4C223.8,68.6,223.9,68.3,223.9,68.1z M227.4,67.2
			C227.4,67.2,227.4,67.2,227.4,67.2C227.4,67.2,227.4,67.2,227.4,67.2z M231.1,55l-3.6,7c-0.2,0.4-0.5,0.7-0.7,1
			c0.8-0.9,1.9-2.4,3.2-4.9l0-0.1c0.6-1,1-1.9,1.4-2.9L231.1,55z M235.1,47.7c0,0.1,0,0.3,0,0.4c0,0.4-0.1,0.7-0.2,1.1
			c0.5-0.3,0.9-0.7,1.3-1.3l-0.6-0.9C235.4,47.2,235.2,47.5,235.1,47.7z M267.7,48.5C267.7,48.5,267.7,48.5,267.7,48.5L267.7,48.5z
			 M266,44C266,44,266,44,266,44C266,44,266,44,266,44z M238.3,42.9c0.1,0.3,0.2,0.6,0.3,0.9c0.2-0.4,0.4-0.8,0.6-1.2l3.4-6.5
			c0.6-0.8,1.1-1.5,1.5-2.2L242,34c-0.1,0.3-0.2,0.4-0.2,0.4l0,0.1c-0.9,2.3-1.1,2.8-1.3,3.1c-0.2,0.3-0.3,0.5-0.4,0.7
			c0,0.5,0,0.9-0.1,1.3c-0.1,0.5-0.4,1.1-1.4,2.6l-0.1,0.1c0,0,0,0,0,0C238.6,42.3,238.5,42.4,238.3,42.9z M263.6,38.5L263.6,38.5
			L263.6,38.5z"/>
	</g>
	<path class="st0" d="M311.1,65.7c0.1-0.6,0.3-1.2,0.6-1.7c0.2-0.5,0.6-1,1-1.4l3-1.5l1.9-1.2h4c0.5,0.1,0.9,0.3,1.2,0.5
		c0.3,0.2,0.6,0.3,0.8,0.5c0.1,0.2,0.3,0.5,0.4,0.8c0.1,0.3,0.2,0.7,0.2,1.1v0.2l-0.1,1.4c0,0.1,0,0.1,0,0.2l1.9-0.6l4.2-2.3
		l1.4-0.7h4l1.1,0.4h-4l2.3-0.7c0.6-0.2,1.2-0.4,1.7-0.5s0.9-0.2,1.3-0.2h4l2,0.2c0.3,0.5,0.7,0.8,1,1c0.3,0.2,0.6,0.3,0.8,0.3h-4
		l0.2-0.1l1.1-0.5c0.1-0.1,0.2-0.1,0.3-0.2c0.1,0,0.2,0,0.4,0h4c0.2,0,0.4,0,0.6,0.1c0.2,0.1,0.4,0.1,0.6,0.2
		c0.1,0.1,0.3,0.3,0.5,0.5c0.2,0.2,0.4,0.4,0.6,0.6c0.3,0.3,0.5,0.6,0.6,0.9c0.1,0.3,0.2,0.6,0.2,0.8l-0.2,0.5l-2.8,2.1l-1.4,1.7
		L345,68h-4l-1.3-0.8l-0.9-0.8l-2.9-0.2l-0.8-0.3c-0.1,0.1-0.1,0.1-0.2,0.1c-0.1,0.1-0.1,0.1-0.2,0.2c-0.3,0.1-0.6,0.1-1.1,0.2
		c-0.5,0.1-1.1,0.1-1.8,0.1l-1.5,0.6h-4l-1.3-0.3h4l-0.9,0.7l-3.9,3.1c-0.4,0.5-0.7,1.1-0.9,1.8c-0.2,0.7-0.3,1.7-0.3,2.8l-0.2,3.8
		l-1.1,0.6c0.3,0.5,0.6,1.1,0.8,1.7c0.2,0.6,0.3,1.1,0.3,1.7h0.8v1.3l0.3,6.3L324,94l-0.2,2.9c-0.5,0.3-0.8,0.5-1.1,0.8
		c-0.3,0.3-0.4,0.5-0.4,0.7c0,0.1,0,0.2,0.1,0.3c0.1,0.1,0.2,0.3,0.3,0.5h-4l1.3-0.3h4l-0.1,0.5l0.4,1.9v0.2c0,0.3-0.1,0.5-0.2,0.8
		c-0.1,0.3-0.3,0.5-0.6,0.8c-0.3,0.3-0.5,0.5-0.8,0.6c-0.3,0.1-0.5,0.2-0.8,0.2l-1.9,0.2l-2.9,1.5h-4l-1.2-0.8l0.1-0.9l0.7-2.8
		l-0.3-3.7l0.4-0.5h1v-0.6l-0.1-1l-0.7-1.4l-0.1-1.9l-0.3-1.8v-1.4v-1.6c0.3-0.3,0.6-0.7,0.9-1.1c0.3-0.4,0.7-0.9,1.1-1.4l0.4-1.2
		l-0.1-0.5c-0.8,0-1.4-0.1-1.8-0.3c-0.4-0.2-0.6-0.5-0.6-0.9l0.2-3.7l-0.2-3.7c0-0.1,0-0.3,0.1-0.4c0.1-0.1,0.2-0.3,0.4-0.5v-1.3
		l-0.6-0.6l-0.1-1.3l-0.1-2.6L311.1,65.7z"/>
	<path class="st0" d="M355.4,88.5v-2.1c0-1.3,0.2-2.7,0.6-4.2c0.4-1.5,1-3,1.8-4.7c0.6-1.4,1.2-2.5,1.7-3.4c0.5-0.8,0.9-1.4,1.2-1.6
		l2-1.2l1.1-2c0.1-0.3,0.3-0.6,0.6-0.9c0.2-0.2,0.5-0.4,0.8-0.6l4.7-2.3l2.5-2.1l3.1-1.2l5.6-1.9l4.4-0.4L389,60h4
		c0.5,0,1,0,1.4,0.1c0.4,0.1,0.7,0.2,0.9,0.3c0.2,0.1,0.4,0.2,0.5,0.4c0.1,0.2,0.2,0.5,0.2,0.8c0.3,0.3,0.5,0.5,0.7,0.6
		c0.2,0.1,0.4,0.2,0.5,0.2h-4c0.1,0,0.3-0.1,0.6-0.4c0.3-0.3,0.6-0.6,0.9-1.1h4l1.3,0.3l3.1,1.2l1.3,1.1l1.8,1l1.8,2.9
		c0.3,0.3,0.7,0.5,1.2,0.7c0.5,0.2,1,0.3,1.7,0.3c0.5,0.7,1,1.3,1.4,2c0.4,0.6,0.7,1.3,0.9,1.9c0.2,0.7,0.4,1.5,0.6,2.5
		c0.2,1,0.3,2.2,0.4,3.5l0.1,1.5h-4l-1.1-0.2h4l0.2,1.1l-1.1,0.8c0.1,0.3,0.1,0.5,0.2,0.7c0.1,0.2,0.1,0.3,0.2,0.5
		c0,0.1,0,0.1,0.1,0.2c0.1,0.1,0.1,0.1,0.2,0.1c0.1,0.1,0.2,0.1,0.3,0.2c0.1,0.1,0.2,0.1,0.4,0.2l0.1,0.9c0,1.8-0.4,3.7-1.1,5.6
		c-0.7,1.9-1.7,3.9-3.1,6.1c-0.3,0.5-0.7,0.9-1.1,1.4c-0.4,0.4-0.8,0.9-1.3,1.5c-0.5,0.6-0.8,1.1-1.1,1.4c-0.3,0.3-0.4,0.5-0.5,0.7
		l-1.5,0.5l-9.2,4.2l-5,0.2l-3.7,0.9h-4h-0.8l-1.2,0.2h-4l-4.3-0.7l-1.9-0.1l-1-1.2l-2.6-0.3l-1.4-0.6c-1.6-1.3-3.2-2.5-4.7-3.8
		l-1-2.1l-1.6-1.3l-1.1-3l-0.4-1.3l0.4-0.3c0-0.2,0-0.4,0.1-0.6c0.1-0.2,0.1-0.3,0.2-0.4c0-0.1,0-0.1,0.1-0.2c0.1,0,0.1-0.1,0.2-0.2
		c0.1,0,0.2,0,0.3,0c0.1,0,0.2-0.1,0.3-0.2l-0.3-0.7L355.4,88.5z M367.4,86c-0.5,0.5-0.8,0.8-1.1,1.1c-0.3,0.3-0.4,0.5-0.4,0.6
		c0.1,0.2,0.2,0.4,0.3,0.5h-4c0.1-0.1,0.3-0.2,0.4-0.3c0.1-0.1,0.3-0.1,0.4-0.1h4l0.5,0.2l1.2,3.7l2.4,4.1l-0.2,2.5
		c0.1,0.1,0.3,0.1,0.4,0.2c0.1,0.1,0.3,0.1,0.5,0.1h-4c0.2,0,0.4,0,0.6-0.1c0.2-0.1,0.4-0.2,0.6-0.4h4l1.1,0.2l5.9,3.7l6,0.5
		l1.4,0.2l1.9-0.3l2.4-0.6l3.2-3.3l2.3-0.6l1.1-1.2l2.6-5.4l1.3-1.2c0.1-0.1,0.2-0.2,0.3-0.3c0.1-0.1,0.1-0.2,0.2-0.3
		c0.1-0.1,0.1-0.2,0.2-0.3c0-0.1,0-0.2,0-0.3v-0.2l-0.7-2.4l0.8-5.6l-1.8-5.5l-0.3-2.5l-0.4-1h4h-0.2l-0.1,0.1h-4l-0.7-0.2
		c-0.1,0-0.2-0.1-0.3-0.2c-0.1-0.1-0.2-0.2-0.4-0.4l-2.3-3.1l-0.8-1.1l-4.1-1.9c-0.3-0.5-0.5-0.8-0.7-1.1c-0.2-0.3-0.4-0.4-0.5-0.5
		c-0.1-0.1-0.2-0.2-0.4-0.3c-0.2,0-0.3,0-0.5,0h4c-0.3,0-0.6,0-1,0.2c-0.4,0.1-0.8,0.2-1.2,0.4h-4c-0.1-0.1-0.3-0.2-0.5-0.3
		c-0.2,0-0.3-0.1-0.5-0.2l-0.8,0.1l-3.4,1.2h-4l-0.7-0.8h4l-0.7,0.9l-3.3,2l-6.1,5.3l-1.1,1c-0.1,0.6-0.2,1.1-0.3,1.5
		c-0.1,0.4-0.2,0.7-0.4,0.9c-0.1,0.3-0.3,0.7-0.6,1.2c-0.3,0.5-0.7,1.2-1.2,2.1l-0.7,1.1l0.1,0.5c0,0.3,0,0.5-0.1,0.8
		c0,0.2-0.1,0.4-0.3,0.6c-0.1,0.1-0.3,0.3-0.6,0.4c-0.3,0.1-0.6,0.2-0.9,0.2l-0.1,0.7l0.1,0.4l1.5,1.7L367.4,86z M391.1,53
		c-0.4-0.1-0.7-0.2-1-0.3c-0.3-0.1-0.5-0.2-0.6-0.3c-0.2-0.1-0.4-0.3-0.7-0.6c-0.3-0.2-0.6-0.6-1-1l-0.9-0.8
		c0.1-0.1,0.1-0.2,0.2-0.3c0-0.1,0.1-0.2,0.2-0.3c0-0.1,0-0.2,0-0.3c0-0.1,0.1-0.2,0.1-0.3c0-0.1,0-0.3-0.1-0.5
		c-0.1-0.2-0.2-0.4-0.3-0.7h-1.1l-0.8-1.2c-0.2-0.3-0.4-0.7-0.6-1c-0.2-0.3-0.4-0.6-0.5-0.8L383,46c-0.9,0.8-1.5,1.5-2,2
		c-0.5,0.5-0.8,1-0.9,1.3l-0.7,1.5l-1.1,1.4l-0.8,1.1l-1.6,1l-1.5,1.5c-0.2,0.2-0.5,0.4-0.8,0.6c-0.3,0.2-0.7,0.3-1.2,0.5
		c-0.5,0.2-0.9,0.3-1.2,0.4c-0.3,0.1-0.7,0.1-1,0.1h-4c-0.2,0-0.4-0.1-0.6-0.2c-0.2-0.1-0.4-0.3-0.7-0.6c0.4-0.6,0.8-1.1,1.1-1.5
		c0.3-0.4,0.6-0.6,0.8-0.7l3.4-1.9l1.3-1.8l3.2-3l0.6-1.4l3-3.1l1.9-2.2l5.3-3.2l1.2-1.3l0.7-0.5l1.3-1.5h4c0.2,0,0.4,0,0.6,0.1
		c0.2,0.1,0.4,0.2,0.5,0.3c0.1,0.1,0.3,0.2,0.4,0.4c0.1,0.2,0.2,0.4,0.2,0.6c0,0.1,0,0.1,0,0.2c0,0.1,0,0.1-0.1,0.1
		c0,0.1,0,0.1,0,0.2c0,0.1-0.1,0.1-0.2,0.2l-1.4,2.1c0,0.3,0.1,0.7,0.3,1.1c0.2,0.4,0.5,0.8,0.9,1.2l-0.4,0.3v1l1.3,0.7l1.3,0.4l3,3
		l0.7,0.9c-0.1,0.3-0.1,0.6-0.2,0.9c-0.1,0.3-0.1,0.7-0.1,1.1l3.2,1.1l0.5,1.2l0.2,0.9h4l0.6,0.6c-1.1,1.5-2.1,2.6-3.2,3.3
		c-1.1,0.7-2.1,1.1-3.1,1.1h-4l-2-0.6v-1c-0.6-0.2-1.2-0.4-1.7-0.5c-0.5-0.1-1-0.2-1.4-0.2L391.1,53z"/>
	<path class="st0" d="M426.5,64.7c0.3-0.5,0.7-1,1.1-1.5c0.4-0.5,0.8-0.9,1.3-1.2c0.5-0.4,1.1-0.8,1.8-1.2c0.7-0.4,1.6-0.8,2.7-1.2
		h4c0.5,0.4,0.9,0.8,1.2,1.1c0.3,0.3,0.5,0.6,0.7,0.8c0.1,0.2,0.2,0.5,0.3,0.8c0,0.3,0,0.6,0,1l-0.1,1.3l0.9-0.3l2-1.6l5.5-1.9
		l0.8-0.3l1-0.4h4c0.1,0,0.1,0,0.2,0c0,0,0.1,0,0.2,0h4c0.1,0,0.3,0,0.4,0.1c0.1,0,0.3,0.1,0.4,0.2h-4l0.4-0.3l0.9-0.1h4
		c0.5,0,1,0.1,1.5,0.3c0.4,0.2,0.9,0.5,1.3,0.8c0.3,0.3,0.5,0.7,0.7,1.1c0.2,0.4,0.4,0.9,0.5,1.4l1.8-0.9l2.5-1.5l1.2-0.3h4h0.1
		l2.1,0.1h-4l1.9-0.6h2.9l1.7-0.2h4l1.7,0.7l2.1,0.5c0.9,0.3,1.6,0.7,2.1,1.2c0.5,0.5,0.7,1.2,0.7,2c-0.3,0.2-0.5,0.4-0.7,0.6
		c-0.2,0.2-0.3,0.4-0.3,0.6s0.1,0.4,0.2,0.5c0.1,0.1,0.3,0.2,0.6,0.2h-4c0.1,0,0.2,0,0.3-0.1c0.1-0.1,0.3-0.1,0.5-0.2h4l0.3,1.1
		l0.1,2.7l0.5,1.3l0.1,0.8l-0.2,3.2v2.7v1.2l-0.6,0.9c-0.2,0.3-0.4,0.5-0.5,0.6c-0.1,0.1-0.2,0.3-0.2,0.4l0.7,5.3l0.1,1.7v3.4v0.1
		l0.2,1.6c-0.1,0.1-0.2,0.3-0.3,0.5c-0.1,0.2-0.4,0.4-0.7,0.6l-0.1,1.6h-4l0.9-0.2h4l0.2,1v3.4l0.7,2.2l-1.2,0.7l-2.6,1.3l-2.5,1.7
		l-0.8,0.2h-4c-0.1-0.1-0.3-0.1-0.6-0.2c-0.2,0-0.5-0.1-0.9-0.3l-0.1-2.1l0.1-1.3l0.8-2.4l-0.6-4.8l0.4-2.7l0.2-2.4l0.9-2.4l0.1-0.3
		c0-0.3-0.1-0.5-0.2-0.8c-0.1-0.2-0.4-0.5-0.7-0.7l-0.1-1.1l-0.3-5c0-0.1,0-0.1,0-0.2c0-0.1,0-0.1,0-0.2c0.1-0.1,0.1-0.2,0.1-0.3
		l1.3-3.6l-1.4-1.9l-0.6-4.4l-0.5-1.2l-0.9-0.5l-2.1-1.3c-0.1-0.1-0.2-0.1-0.4-0.2c-0.2,0-0.3,0-0.5,0c-0.9,0.1-1.8,0.3-2.7,0.6
		c-0.9,0.3-1.7,0.7-2.6,1.1c-1.2,0.6-2.1,1.1-2.7,1.6c-0.6,0.5-0.9,0.9-0.9,1.3v3.5l-1.3,1v0.3c0,0.3,0.1,0.6,0.3,0.9
		c0.2,0.3,0.5,0.6,0.9,0.9l0.4,11.1c-0.2,0.1-0.4,0.2-0.6,0.3c-0.2,0.1-0.3,0.1-0.5,0.1h-4c-0.1,0-0.2,0-0.3,0c-0.1,0-0.1,0-0.2,0
		c-0.1,0-0.1-0.1-0.2-0.2h4l0.1,1.2L465,92l-0.2,1.8l0.1,0.9c0.1,0.3,0.3,0.7,0.4,1.3c0.1,0.6,0.2,1.3,0.4,2.2
		c0.1,0.7,0.2,1.4,0.3,2.1c0,0.6,0,1.2,0,1.8l-0.1,0.5l-0.8,0.4l-1.8,1.2l-2.8,1.1l-1,0.5h-4c-0.1-0.1-0.3-0.2-0.5-0.3
		c-0.2-0.1-0.4-0.3-0.6-0.6l-0.1-0.3l0.4-5.1l-0.2-4.3c0-0.3,0-0.6,0.1-0.8c0.1-0.2,0.1-0.4,0.2-0.6c0.1-0.1,0.2-0.3,0.4-0.5
		c0.2-0.2,0.4-0.4,0.7-0.7l0.1-1l-0.7-1.5l-0.3-1.2l-0.8-1.5l0.2-1.3l0.2-4l1.5-2.1l0.2-0.6c0-0.2,0-0.4,0-0.6
		c0-0.2-0.1-0.3-0.3-0.4c-0.1-0.1-0.1-0.1-0.2-0.2c-0.1,0-0.1-0.1-0.1-0.2c-0.1,0-0.1,0-0.2,0c-0.1,0-0.1-0.1-0.2-0.1h4l-0.6,0.2h-4
		l-0.4-1.1V76v-2c0-2.4-0.3-4.2-0.8-5.4c-0.5-1.2-1.3-1.8-2.4-1.8h4c-0.2,0-0.4,0-0.7,0.1c-0.3,0-0.6,0.1-0.9,0.3h-4l-0.2-0.3
		l-1.2,0.2l-2.5,1l-1.8,0.2l-1.2,0.5l-0.5,1.1c-0.5,1-0.9,1.9-1.2,2.6c-0.3,0.7-0.5,1.3-0.7,1.8c-0.1,0.5-0.2,1-0.3,1.5
		c-0.1,0.5-0.1,1.1-0.1,1.7v0.8l0.2,6.6l-0.1,1.2l-1.2,0.6l0.2,1l1.1,1.5l-0.2,5l0.8,8.8c0,0.1,0,0.2-0.1,0.3
		c-0.1,0.1-0.2,0.2-0.3,0.3c-0.1,0.1-0.3,0.3-0.5,0.4c-0.2,0.1-0.4,0.2-0.7,0.4l-3.1,1.5c-0.2,0.1-0.4,0.1-0.6,0.2
		c-0.2,0.1-0.5,0.1-0.8,0.1l-4,0.1c-0.2-0.1-0.4-0.1-0.6-0.2c-0.2-0.1-0.5-0.2-0.8-0.3v-1.1l-0.1-1.2l0.2-4.8l-0.3-2.1l0.8-1.4
		l0.2-1.3L429,93v-1.2l-0.1-0.7l0.2-0.7l0.9-1.3l0.5-1.1v-1c-0.3,0-0.5,0-0.6-0.2c-0.1-0.1-0.3-0.2-0.4-0.3
		c-0.1-0.1-0.2-0.2-0.3-0.4c-0.1-0.2-0.2-0.5-0.2-0.8c-0.1-0.4-0.1-0.8-0.1-1.3c0-0.5,0-1,0-1.5v-1.4v-2.3l0.1-1.1l0.8-0.1l0.1-2.2
		l-0.2-1.5l-0.9-1.8l-0.3-3.7l-0.4-1.9l-0.3-1.4h4l-0.3,0.4h-4L426.5,64.7z"/>
	<path class="st0" d="M520.9,62.9l1.4-0.2l4.4-1.5l3.5-0.3l2.1-0.9l1-0.2h4c0.9,0,1.7,0.2,2.4,0.7c0.7,0.5,1.3,1.2,1.9,2.1h-4
		c0.2,0,0.4,0,0.6-0.1c0.2-0.1,0.3-0.1,0.4-0.2c0.1,0,0.1,0,0.2-0.1c0-0.1,0.1-0.1,0.2-0.2c0-0.1,0-0.2,0.1-0.3
		c0-0.1,0.1-0.2,0.2-0.3h4l1.3,1.2l1.8,0.9l4.1,4.1c0.5,0.8,1,1.5,1.4,2.1c0.4,0.6,0.7,1,0.9,1.4c0.1,0.4,0.3,1,0.6,1.7
		c0.3,0.7,0.6,1.6,0.9,2.7l0.4,1.1l-0.5,0.3h-4l-1.9-0.4h4l-2.1,0.6h-4l-1.6-0.3h4l-1.8,0.6h-4l-1.9-0.3l-0.8,0.1h-4l-3.1-0.6h-1.9
		h-4l-2.7-0.1h4l-6.6,1h-4l-2.4-0.1h4l-3.3,0.9l-1.1,0.2l-0.2,1.2c-0.1,0.4-0.1,0.7-0.2,1c0,0.3-0.1,0.5-0.2,0.6
		c-0.1,0.1-0.1,0.2-0.2,0.3c-0.1,0.1-0.1,0.2-0.2,0.3c-0.1,0.1-0.3,0.2-0.4,0.3c-0.1,0.1-0.3,0.2-0.4,0.3l0.1,0.9
		c0.5,0.4,0.9,0.7,1.2,1c0.3,0.3,0.4,0.5,0.5,0.6l1.3,5l0.7,1.2l-0.6,0.8l0.1,0.1v0.2l1.9,0.6l0.4,1.1c0.2,0.7,0.4,1.2,0.7,1.5
		c0.2,0.3,0.5,0.6,0.8,0.7l2.5,1l1,1.9c0.1,0.1,0.4,0.3,0.7,0.4c0.3,0.1,0.8,0.2,1.4,0.2l0.7,1.3l1.5,0.2l2.9,1l0.8-0.1l9.3-1.5
		l2.1-1.3l3-1.9l2.6-3.3c0.2-0.3,0.4-0.6,0.7-0.7c0.3-0.1,0.6-0.2,1-0.2h4c0.5,0,0.9,0.1,1.2,0.4c0.3,0.2,0.4,0.6,0.4,1.2
		c0,0.3,0,0.5,0,0.7c0,0.2-0.1,0.4-0.2,0.5l-1,1.6l-2.2,4l-2.1,0.1l-1.4,1.2c-0.2,0.1-0.4,0.3-0.7,0.4c-0.2,0.1-0.5,0.2-0.9,0.3
		l-8.8,1.5l-1.4,0.5h-4l-1.2-0.1l-2.4,0.2h-4l-5.1-0.3H519c-0.4-0.3-0.7-0.5-1-0.6c-0.2-0.1-0.4-0.1-0.5-0.2l-4.7-1.7l-1.7-1.6
		l-3.2-2.1l-2.4-3.5l-1.1-0.8c0.2-0.4,0.4-0.8,0.5-1.1c0.1-0.3,0.2-0.6,0.2-0.9l-0.1-0.6l-1.4-2.1l-0.3-2.8l-0.1-2.2
		c0-0.4,0-0.9,0.1-1.4c0.1-0.5,0.2-1.1,0.4-1.7c0.3-0.9,0.5-1.7,0.8-2.3c0.2-0.6,0.5-1,0.7-1.3l1.8-2.3l1-2.1l2.2-2.2l2.6-3.3
		l2.2-1.2l3.1-2.1l2.2-1.5L520.9,62.9z M522.6,72.2h4l1,0.1l1.1,0.3l1.2-0.3l1.1-0.2h4l0.4,0.6l1.7-0.4h4l1.8,0.3h-4
		c0.4,0,0.7-0.1,0.9-0.3c0.2-0.2,0.3-0.5,0.3-0.8c0-0.2-0.2-0.6-0.5-1.2c-0.3-0.6-0.7-1.3-1.3-2.2l-3.5-2.4l-1-1.2h-1.7l-0.7-0.1
		l-1.9,1.1l-2.8,0.6l-3.4,1.4l-1.2,0.4l-1.6,2.4c-0.5,0.3-0.8,0.5-1.1,0.7c-0.3,0.2-0.4,0.4-0.5,0.5l-0.3,0.7l2.8,0.2L522.6,72.2z"
		/>
	<g>
		<path class="st0" d="M202.7,233.4c0.6-0.1,1.1-0.2,1.3-0.3v-1l-1-0.8c-0.1-0.8-0.2-1.8-0.3-2.9c0-0.2-0.1-0.5-0.1-0.7
			c0-0.7,0.4-1.6,1.3-2.5l-0.2-0.2c-0.1-0.7-0.3-1.2-0.6-1.6c-0.2-0.3-0.4-0.7-0.6-1.4c-0.3-1.2-0.4-2.1-0.4-2.7l0.4-4.5v-2.6v-1.4
			l0.8-0.9c-0.8-0.3-1.2-0.5-1.2-0.6c0.2-2.9,0.3-4.4,0.3-4.4c0-0.5-0.1-1.8-0.4-3.9l0.2-0.2l-0.2-2.9c0.5-0.3,1-0.5,1.6-0.6
			c0.3-0.1,0.6-0.2,1-0.5c-0.2-0.6-0.5-1.2-1-1.6c0.1-0.3,0.1-0.6,0.1-0.7c0-0.4-0.2-1-0.5-1.7l-1.2,0.7c-0.6-1.3-0.9-2.3-0.9-3
			c0-0.3,0.1-0.8,0.3-1.7l-0.1-3.2V184l-0.2-1.2l0.2-2.4c-0.6-3.6-0.9-5.5-0.9-5.9c0-0.5,0.2-1.1,0.5-1.7c0.2-0.3,0.2-0.8,0.3-1.4
			c0.4-0.3,0.6-0.7,0.6-1v-0.1v-0.2l0.2-1.5l-1.7,0.2c0-0.8-0.1-1.7-0.4-2.8l-0.2-1.6c-0.4-2.2-0.6-3.9-0.6-5.1
			c0-0.8,0.1-1.7,0.3-2.6c-0.4,0.1-1.2,0.2-2.5,0.2l-3,0.6c-0.1,0-0.3-0.1-0.7-0.2c0.6-1.5,0.9-2.3,1-2.3c0.8-0.5,1.4-0.8,1.8-1.2
			v-0.3c0.8-0.2,1.3-0.3,1.5-0.3c1-0.3,1.6-0.4,1.8-0.4c0.1,0,0.6,0.1,1.6,0.3c0.3,0.1,0.6,0.1,0.9,0.1c0.5,0,1.7-0.4,3.6-1.3
			c0.2,0,1-0.1,2.5-0.1c0.3,0,1.6-0.2,4-0.5c0.2,0,0.3-0.1,0.4-0.1c0.5,0,1.4,0.2,2.6,0.5c0.6,0.2,1.2,0.3,1.7,0.3
			c0.3,0,1-0.1,2.2-0.3c0.5,1,1,1.5,1.4,1.6c0.3,0.1,1,0.1,2,0.1l0.4-0.7c1-0.2,1.8-0.6,2.5-1c1.9,0.2,3.6,0.4,5.2,0.4
			c2,0.1,4.3,0.4,6.9,0.9h2.1l3.6,0.4c0.9,0,1.4,0.1,1.6,0.1c0.4,0.1,0.9,0.5,1.6,1c0.7-0.1,1.3-0.2,1.6-0.2c0.8,0,3.2,0.8,7.3,2.4
			c1.9,0.6,3,1,3.2,1.3c0.8,0.9,1.2,2.1,1.2,3.6c0,1.8-1,4.2-3,7.2l-1.6,2.6c-2.1,1.9-3.5,3.3-4.2,4.1H248l-0.2,0.2v1.8
			c-0.8,0.5-1.3,0.7-1.6,0.9c-2,1.2-3.6,2-5.1,2.4l-2.1,1c-1.5,0.3-2.4,0.5-2.7,0.6c-0.3,0.2-0.7,0.4-1.1,0.7
			c0.8,0.4,1.4,0.6,1.8,0.7c0.1,0,1.4,0.1,3.9,0.3c1.1,0.1,2.4,0.4,3.9,0.9c2.1,0.7,3.8,1.2,4.9,1.5c0.8,0.2,1.7,0.5,2.5,0.9
			c-0.2,0.6-0.2,1.2-0.2,1.6c0,0.6,0.5,1.1,1.6,1.6c0.3-0.3,0.8-1.2,1.4-2.7c0.9,0,1.8,0.3,2.8,0.6c1.8,0.7,3.1,1.2,3.7,1.5
			c0.4,0.1,0.8,0.6,1.1,1.6l1.6,0.7l0.2,0.6l0.9-0.4l0.6,0.6c0.5-0.5,1-0.7,1.4-0.7c0.9,0,2.2,0.5,3.9,1.6c3,2,5.2,3.4,6.5,4.3
			c0.6,0.5,1.4,1.2,2.2,2.4c-0.2,0.3-0.2,0.6-0.2,0.7c0,0.3,0.2,0.6,0.5,1.1c0.5-0.5,0.8-0.7,1.2-0.7c0.2,0,1.8,1.2,4.9,3.5l0.7,1.1
			c0.8,0.4,1.3,0.7,1.5,0.9c0.1,0.1,0.6,0.8,1.5,2c1.2,1.4,1.9,2.5,2.4,3.2c-1,0.8-1.4,1.6-1.4,2.3c0,0.2,0,0.4,0.1,0.7l2-0.3
			c0.8,1,1.3,2,1.7,2.9c0.2,0.5,0.6,2,1.2,4.4c0.8,1.8,1.3,3.1,1.3,3.9v0.1l-0.2,2.1v2.2c0,0.8-0.7,1.9-2.1,3.3
			c0,0.3,0.3,0.6,0.9,0.9c0,0.5-0.1,0.9-0.1,1.2c0,0.2,0,0.4,0.1,0.6c0.1,0.6,0.1,1,0.1,1.2c0,0.2-1.2,2-3.6,5.3l-1.3,0.9l-1.3,1.2
			c-1,0.7-1.6,1.1-1.8,1.2c-0.1,0.2-0.5,0.7-1,1.8c-1,1.3-3,2.6-6,3.8l-0.7-0.7c-1.2,0.1-2,0.3-2.4,0.5c-0.5,0.2-1,0.8-1.6,1.7
			c0.8,0.1,1.2,0.4,1.2,1c0,0.2-0.1,0.5-0.3,0.8c-0.3,0.4-1.8,0.9-4.5,1.4c-0.8,0.2-2.6,0.8-5.2,2.1c-0.6,0.2-1.1,0.4-1.6,0.6
			c-1.6,0.6-2.5,0.9-2.8,1.1c-0.5,0.2-0.8,0.3-1,0.3c-0.2,0-0.6-0.2-1.1-0.5l-1.7,0.6l-0.5,0.9c-0.8,0.2-1.3,0.2-1.5,0.3
			c-1.2,0.2-1.9,0.4-2.3,0.6l-1.5,0.9c-1.5-0.4-2.3-0.6-2.5-0.6c-0.2,0-0.6,0.3-1.2,0.9c-0.2,0.2-0.6,0.4-1.3,0.5
			c-1.6,0.3-2.9,0.7-3.7,1.2l-1.4-1.3h-0.3c-0.5,0-0.9-0.1-1.4-0.3l-1.2,1.6l-11.3,0.3l-2.5-0.6l0.4-1.7l-1.6-0.3
			c-0.4,0.5-1,0.9-1.7,1.1c-1.2,0.4-1.9,0.6-2.1,0.6c0,0-1.5-0.3-4.3-1l-1-0.5l-2,0.1c-0.9-0.4-1.8-0.6-2.5-0.6
			c-0.5,0-1.5-0.1-3-0.2l-1.6,0.2l-2.2-0.2l-5.2-0.2l-0.3-0.1c-1.8,0.2-2.8,0.3-3.2,0.3c-2,0-3-0.4-3-1.3c0-0.2,0.1-0.3,0.3-0.5
			c0.7-0.7,1.5-1.2,2.2-1.5l4.4-1.7c0.4-0.2,0.8-0.6,1.2-1.2c0.3-0.6,0.5-1,0.5-1.3l-0.1-1.6l5.1-1.4l-4.2-1.2
			c-0.6-0.2-0.9-0.6-0.9-1.4c0-0.2,0.2-0.8,0.7-1.7l0.1-3.3V244c0-0.3-0.3-1.2-1-2.6l5.5-2.4l-5.4-1.7c0.5-0.5,0.7-0.8,0.7-0.9
			c0.1-0.1,0.2-0.6,0.3-1.3C202.3,234.7,202.4,234.2,202.7,233.4z M207.2,168.9h0.2l0.3-0.2c0.4,0.8,0.9,1.4,1.5,2v9.7L209,182
			c1,0.2,1.6,0.4,1.9,0.5c0.3,0.1,0.5,0.1,0.7,0.1l1.3-0.1h0.1c0,0,0.7,0.1,2,0.3c1.6,0.1,3.3,0.2,4.9,0.3c-0.2,0.6-0.2,1.1-0.2,1.5
			c0,1.2,0.3,1.8,0.9,1.8c0.3,0,1.2-1,2.6-2.9v-0.9l10.5-2.1c0.5-0.1,1.3-0.6,2.5-1.4l2.4-0.8l2-1.4c2.8-1.6,4.8-2.9,5.8-3.9
			c1.5-1.4,2.2-2.3,2.3-2.5l1-2.9c0.6-1.6,0.9-2.5,0.9-2.7c0-0.5-0.3-1-1-1.6l0.7-1.7c-0.3-0.2-0.6-0.2-0.7-0.2
			c-0.1,0-0.7,0.2-1.8,0.7l-2.5-2.8c-0.4,0-0.7,0.1-0.9,0.1c-0.5,0-1.2-0.1-2.2-0.3c-0.4-0.6-0.6-0.9-0.7-1l-5.8-1.1l-2.1-0.7
			l-1.8,0.3l-1.1-0.1h-1.6l-2.1-0.5l-2.2-0.1l-2-0.1l-4.9,0.7l-4.4,0.4c-1.2,0.3-2.2,0.4-2.9,0.4c-0.2,0-0.7,0-1.4,0
			c-0.4,0.8-0.6,1.3-0.6,1.4l-0.4,6.7c0,0.6-0.5,1.3-1.5,2.1l0.1,0.2C207,168,207.1,168.4,207.2,168.9z M208,241.8l0.5,1.9l1.8-0.3
			c0.5,1.1,0.7,2,0.7,2.8v0.3c0,0.5,0,1-0.1,1.6c-0.1,0.6-0.2,0.9-0.2,0.9c0.5,2.8,0.8,4.3,0.8,4.5c0,0.8-0.5,1.7-1.4,2.6
			c-0.4-0.1-0.7-0.2-1-0.2c-0.2,0-0.5,0.2-0.8,0.6c0.9,0.6,2,1,3.2,1.2c1,0.1,2,0.4,2.8,0.9l0.2,1.2c0.7-0.1,1.2-0.5,1.7-1.1
			c1.3,0.6,2.8,1.1,4.4,1.4l2,0.8l1.8,0.2c4.7,0.7,8.3,1,11,1c2.2,0,5.4-0.4,9.4-1.3l1.2,0.9c0.5-0.6,0.8-0.9,1-1l2.5-0.3
			c0.4,0,1.1-0.5,1.9-1.3c1.4,0,2.3-0.1,2.7-0.2l3.2-0.8c1.7-0.3,3.2-0.8,4.4-1.5c0.8-0.4,1.3-0.6,1.7-0.6c0.2,0,0.5,0.1,0.9,0.2
			c0.3-0.4,0.8-0.7,1.5-1c4.3-1.9,7.4-3.6,9.2-5.3c0.4-0.3,2.1-1.3,5.1-2.9c0.2-0.1,0.6-0.7,1.2-1.9c0.9-1.1,1.5-1.8,1.7-2.1
			c0.4-0.5,1.3-0.9,2.8-1.4l0.1-1.2c3.5-0.6,5.3-1,5.3-1.3c0-0.3-1.8-0.6-5.5-1c0.6-1.1,1-1.9,1.2-2.2c0-0.2,0.3-1.2,0.7-3.1
			c0.2-0.7,0.4-1.2,0.4-1.7l-0.2-0.2l1-0.8c-0.4-0.7-0.6-1.1-0.6-1.3V226l-1.2-2.1l0.1-1.7c0-1.2-1.2-3.3-3.6-6.3
			c-0.9-1.2-2.8-3.2-5.6-6c0.1-0.4,0.1-0.8,0.1-1.1c0-0.3-0.1-0.6-0.4-0.9c-0.4-0.3-0.6-0.5-0.7-0.5h-0.6c-0.8-0.3-1.5-0.7-2.2-1.1
			c-1.5-0.8-2.3-1.3-2.6-1.5c-0.2-0.2-0.5-0.5-0.9-1.2c0,0-0.2-0.1-0.4-0.3c-0.3-0.2-0.7-0.4-1-0.7c-0.8-0.6-1.6-1-2.4-1.2l-1.2-0.7
			c-0.7-0.3-1-0.6-1.2-0.7c-0.1-0.1-0.4-0.8-1-2.1c-0.1-0.2-0.2-0.2-0.5-0.2c-0.1,0-0.8,0.3-2,0.8c-0.1,0-0.2,0.1-0.3,0.1
			c-0.5,0-1.1-0.2-1.7-0.5c-0.8-0.5-1.7-0.9-2.8-1.3l-1.2-0.6l-5.2-1.6l-3.6-1.9c-1.1-0.4-1.9-0.9-2.5-1.4c-1.3,0.6-2.1,0.9-2.3,0.9
			l-3.2-1l-2.1-0.8l-2.4-0.3l-1.9-0.5l-1.1-0.2l-2.1-0.5c-3.3-0.3-4.9-0.5-5.1-0.5l-3,0.1l-4.7-0.2c-1.7,0-3.5,0.8-5.2,2.4
			c0.1,0.9,0.4,2.3,0.7,4.3c0,0.2,0.1,0.3,0.1,0.5c0,0.4-0.2,1.1-0.5,2.1h-0.1c-0.9,0-1.6,0.1-1.9,0.4c0.2,1.3,0.3,2.1,0.4,2.4
			c0.1,0.2,0.5,0.7,1.2,1.5c-0.2,0.6-0.2,1.2-0.3,1.9v0.1c0,0.8,0,1.3,0,1.6c0,0.3,0,0.4,0,0.5c0,0.4,0.1,1.5,0.4,3.1
			c0.1,0.7,0.1,1.3,0.1,1.8c0,0.5,0,1.2-0.1,2.1l-0.3,3.4l-0.1,1.2l0.6,2.2l0.1,2.8c0.3,1.6,0.4,2.6,0.4,3.1c0,0.7-0.2,2-0.5,3.7
			h-0.9l0.3,2.9c1,0.8,1.5,1.5,1.5,2.3l-0.1,3.9c0,0.3,0,0.9,0.1,1.7l-0.3,0.3h-0.3l-0.2,0.2v0.3c-0.6,0-1.1-0.1-1.4-0.1
			C208.6,241.3,208.2,241.4,208,241.8z"/>
		<path class="st0" d="M244.2,268l-1.9-1.8c-0.1,0-0.2,0-0.3,0l-1,1.4l-12.4,0.4l-4.4-1.1l0.2-0.7c-0.1,0.1-0.3,0.1-0.5,0.2
			c-2,0.6-2.3,0.7-2.7,0.7c-0.3,0-0.3,0-4.7-1l-0.2-0.1l-0.7-0.4l-1.9,0.1l-0.4-0.2c-0.7-0.3-1.4-0.5-1.9-0.5l0,0
			c-0.5,0-1.4-0.1-2.9-0.2l-1.6,0.2l-2.4-0.2l-5.5-0.3c-2.2,0.3-2.8,0.3-3.1,0.3c-4.1,0-4.8-1.9-4.8-3.1c0-0.4,0.1-1.1,0.9-1.8
			c0.9-0.8,1.8-1.4,2.8-1.8l4.4-1.7c0,0,0.2-0.2,0.3-0.5c0.1-0.2,0.2-0.4,0.2-0.5l-0.2-2.8l1-0.3c-0.6-0.6-0.9-1.4-0.9-2.4
			c0-0.4,0.1-0.9,0.8-2.2l0.1-2.9l0-0.8c0-0.1-0.2-0.6-0.8-1.9l-0.8-1.7l2.8-1.2l-3.4-1.1l1.7-2c0.3-0.3,0.5-0.5,0.5-0.6
			c0-0.1,0-0.3,0.1-0.6c0-0.5,0.1-1.1,0.4-2l0.3-1.1l0-0.4c-0.1-0.8-0.2-1.7-0.3-2.8c-0.1-0.3-0.1-0.6-0.1-1c0-0.9,0.3-1.9,1-2.8
			c0-0.1-0.1-0.2-0.1-0.2c-0.5-0.5-0.8-1.2-1-2.2c-0.3-1.3-0.4-2.4-0.4-3.1l0-0.2l0.4-4.5v-4.2c-0.2-0.3-0.4-0.7-0.4-1.2l0-0.1
			c0.3-3.3,0.3-4.1,0.3-4.3c0-0.3-0.1-1.2-0.4-3.6l-0.1-0.9l0.3-0.3l-0.2-3.2l0.9-0.5c0.2-0.1,0.4-0.2,0.6-0.3l-0.1-0.1l-0.4,0.3
			l-0.8-1.9c-0.7-1.5-1-2.8-1-3.8c0-0.3,0-0.7,0.3-1.8l-0.1-3.1v-1.5l-0.2-1.2l0.2-2.5c-0.9-5.3-0.9-5.7-0.9-5.9
			c0-0.8,0.2-1.6,0.6-2.5c0,0,0.1-0.2,0.1-0.8l0-0.7l-0.9,0.1v-2c0-0.7-0.1-1.4-0.3-2.3l0-0.2l-0.2-1.5c-0.4-2.3-0.6-4-0.6-5.3
			c0-0.2,0-0.4,0-0.7c-0.1,0-0.1,0-0.2,0l-3,0.6H194c-0.3,0-0.7-0.1-1.3-0.3l-1.7-0.6l0.6-1.7c0.8-2.2,1.2-3.1,2.1-3.4
			c0.2-0.1,0.4-0.3,0.6-0.4v-0.8l1.4-0.3c1-0.2,1.3-0.3,1.3-0.3l0.1,0c1.4-0.4,1.9-0.5,2.3-0.5c0.2,0,0.3,0,1.9,0.3l0.1,0
			c0.2,0,0.3,0.1,0.4,0.1c0.1,0,0.8-0.2,2.9-1.1l0.1-0.1l0.2,0c0.2-0.1,0.4-0.1,3-0.1c0.1,0,0.7,0,3.7-0.4c0.3-0.1,0.5-0.1,0.7-0.1
			c0.7,0,1.7,0.2,3.1,0.6l0.1,0c0.4,0.1,0.8,0.2,1.2,0.2c0,0,0.4,0,1.9-0.3l1.2-0.2l0.6,1.1c0.2,0.4,0.4,0.7,0.5,0.8
			c0.1,0,0.1,0,0.2,0l0.3-0.5l0.8-0.2c0.8-0.2,1.4-0.5,2-0.8l0.5-0.3l0.6,0.1c1.9,0.2,3.5,0.4,5,0.4c2,0.1,4.4,0.4,7,0.9l2.2,0
			l3.5,0.4c1.3,0.1,1.6,0.1,1.8,0.2l0,0c0.5,0.1,1.1,0.4,1.6,0.9c0.4-0.1,0.8-0.1,1.1-0.1c0.8,0,2.3,0.3,7.9,2.5
			c2.7,0.8,3.5,1.3,4,1.8c1.1,1.2,1.6,2.8,1.6,4.7c0,2.2-1.1,4.8-3.3,8.2l-1.7,2.8l-0.2,0.2c-2.5,2.2-3.5,3.3-3.9,3.9l-0.5,0.7h-1.8
			v1.2l-0.9,0.5c-1,0.6-1.4,0.8-1.6,0.9c-1.9,1.1-3.7,2-5.1,2.5c1,0.2,2.2,0.5,3.5,0.9c2,0.7,3.6,1.2,4.7,1.4c1,0.2,2,0.6,3,1.1
			l0.7,0.4l0.1-0.2l1.2,0.1c1.1,0,2.2,0.3,3.4,0.7c1.8,0.7,3,1.2,3.7,1.5c1.1,0.3,1.6,1.2,2,2l0.9,0.4l0.7-0.3l0.4,0.5
			c0.4-0.1,0.8-0.2,1.1-0.2c1.3,0,2.8,0.6,4.8,1.9c3,2,5.3,3.4,6.6,4.4l0,0c0.7,0.6,1.6,1.4,2.6,2.7l0.4,0.5
			c0.6,0.1,1.5,0.8,5.6,3.8l0.2,0.2l0.7,1c0.8,0.4,1.1,0.6,1.2,0.7l0.1,0.1l0.1,0.1c0.1,0.1,0.3,0.3,1.6,2.2c1.2,1.5,2,2.6,2.5,3.5
			l0.7,1.3l-0.7,0.6l0.5,0.7c0.8,1.1,1.5,2.2,1.9,3.2l0,0.1c0.1,0.4,0.4,1.2,1.2,4.4c0.9,2,1.4,3.4,1.4,4.4l0,0.2l-0.2,2.1l0,2.3
			c0,0.9-0.4,1.8-1.3,2.9l0.2,0.1l-0.1,1.2c0,0.4-0.1,0.8-0.1,1.1c0,0.1,0,0.1,0,0.2l0,0.1c0.1,0.9,0.1,1.2,0.1,1.4
			c0,0.7,0,0.9-4,6.3l-0.2,0.2l-1.4,1l-1.4,1.2l-0.1,0.1c-0.8,0.5-1.2,0.8-1.4,1c-0.1,0.2-0.4,0.6-0.8,1.4l-0.1,0.2
			c-1.2,1.6-3.4,3.1-6.8,4.4l-1,0.4l-1-0.9c-0.3,0-0.5,0.1-0.7,0.1c0.2,0.4,0.3,0.8,0.3,1.2c0,0.6-0.2,1.2-0.7,1.9
			c-0.6,0.8-1.6,1.3-5.6,2.1c-0.3,0.1-1.4,0.4-4.8,1.9l-0.1,0c-0.6,0.2-1.1,0.4-1.6,0.6c-2.1,0.8-2.5,1-2.5,1l-0.1,0
			c-0.7,0.4-1.3,0.5-1.8,0.5c-0.4,0-0.8-0.1-1.3-0.4l-0.3,0.1l-0.6,1l-0.8,0.2c-0.8,0.2-1.3,0.3-1.5,0.3c-1.2,0.2-1.7,0.4-1.8,0.4
			l-2.1,1.2l-0.7-0.2c-0.8-0.2-1.4-0.4-1.7-0.5c-0.1,0.1-0.2,0.1-0.3,0.2c-0.6,0.7-1.6,0.9-2.3,1c-1.7,0.3-2.6,0.7-3.1,0.9
			L244.2,268z M228.4,264.2l0.6,0.1l10.1-0.3l0.4-0.6c-1.7,0.2-3.1,0.3-4.3,0.3c-1.8,0-4-0.1-6.6-0.4L228.4,264.2z M243.8,262.8
			l1,0.9c0.1-0.1,0.3-0.1,0.4-0.2l-1.1-0.8C244,262.7,243.9,262.8,243.8,262.8z M217.6,262.5c2.3,0.5,3.3,0.8,3.7,0.8
			c0.2-0.1,0.7-0.2,1.6-0.5c0.1,0,0.3-0.1,0.4-0.2l-1.2-0.2l-2-0.8c-1.2-0.2-2.4-0.6-3.5-1c-0.5,0.4-1.1,0.6-1.7,0.7l-1.3,0.2
			c0.3,0.1,0.5,0.2,0.8,0.3l2.1-0.1L217.6,262.5z M247.5,262.4c-0.1,0.1-0.2,0.2-0.3,0.4l-0.2,0.2c0.3-0.1,0.6-0.1,1-0.2l0.1,0
			c0.2,0,0.3,0,0.3-0.1c0.3-0.2,0.5-0.4,0.7-0.6L247.5,262.4z M247.6,262.3L247.6,262.3L247.6,262.3z M251,261.6
			c0.3,0,0.8,0.2,1.9,0.5l0.9-0.5c0.6-0.3,1.4-0.5,2.8-0.7c0.1,0,0.4-0.1,0.7-0.1l0.5-0.8l1.5-0.5c-0.5,0.2-1.1,0.3-1.7,0.4
			l-3.2,0.8c-0.4,0.1-0.9,0.2-2.5,0.3C251.6,261.2,251.3,261.4,251,261.6z M211.6,261.3c0.5,0,0.9,0.1,1.4,0.2l-0.4-1.8
			c-0.4-0.2-0.9-0.3-1.5-0.3l-0.1,0c-1.4-0.2-2.7-0.7-3.9-1.5l-1.6-1.1l1.2-1.5c0.7-0.8,1.4-1.2,2.2-1.2c0.1,0,0.2,0,0.4,0
			c0.2-0.3,0.3-0.5,0.3-0.6c0,0,0-0.1,0-0.2l-6.4,1.8l0,0.3c0,0.6-0.2,1.2-0.7,2.1l0,0.1c-0.6,1-1.3,1.6-2,2l-3.9,1.5
			c0.4,0,1.1-0.1,2.2-0.3l0.3,0l0.4,0.1l5.2,0.2l2.1,0.2l1.6-0.2l0.2,0C210.1,261.2,211.1,261.3,211.6,261.3z M222.9,259.1l1.6,0.2
			c4.6,0.7,8.2,1,10.8,1c2.1,0,5.1-0.4,9-1.2l0.8-0.2l0.6,0.5c0.3-0.2,0.5-0.3,0.8-0.3l0.1,0l2.5-0.3c0.1-0.1,0.4-0.3,1-0.8l0.5-0.5
			l0.7,0c1.8,0,2.2-0.1,2.3-0.2l0.1,0l3.3-0.8c1.5-0.3,2.9-0.8,4-1.3c1.1-0.5,1.8-0.8,2.5-0.8c0.1,0,0.3,0,0.5,0
			c0.4-0.3,0.8-0.5,1.3-0.7c4.1-1.8,7-3.4,8.7-5l0.1-0.1c0.4-0.3,1.2-0.8,5.1-2.9c0.1-0.2,0.3-0.5,0.8-1.3l0.1-0.2l0.1-0.1
			c0.9-1.1,1.5-1.8,1.8-2.1c0.5-0.6,1.3-1.1,2.4-1.5l0.1-0.6l-1.2-0.1l1.2-2.3c0.5-0.9,0.8-1.6,1-2c0.1-0.3,0.2-1.1,0.6-2.9l0.1-0.2
			c0.1-0.2,0.1-0.4,0.2-0.5l-1-1l1.4-1.1c-0.1-0.3-0.1-0.5-0.1-0.8v-2.4l-1.2-2.1l0.1-2.1c0-0.2-0.2-1.4-3.2-5.2
			c-0.9-1.2-2.7-3.1-5.5-5.9l-0.7-0.7l0.2-0.9c0-0.1,0-0.3,0.1-0.4h-0.4l-0.3-0.2c-0.8-0.4-1.6-0.7-2.3-1.1c-2-1.1-2.5-1.4-2.8-1.6
			l0,0c-0.4-0.3-0.8-0.7-1.2-1.4c-0.4-0.2-0.8-0.5-1.2-0.8c-0.6-0.4-1.2-0.7-1.8-0.9l-0.2-0.1l-1.4-0.8c-1-0.5-1.3-0.8-1.5-1
			c-0.2-0.2-0.3-0.4-0.8-1.4c-0.2,0.1-0.4,0.2-0.7,0.3l-0.1,0.1c-0.3,0.1-0.6,0.1-0.8,0.1c-0.8,0-1.7-0.3-2.5-0.7l-0.1-0.1
			c-0.7-0.4-1.5-0.8-2.4-1.1l-0.2-0.1l-1-0.5l-5.2-1.6l-3.6-1.9c-0.8-0.3-1.4-0.6-2-1c-1.2,0.6-1.7,0.7-2.1,0.7H241l-3.6-1.2
			l-1.9-0.7l-2.3-0.3l-1.8-0.4l-1.1-0.2l-2-0.4c-3.6-0.3-4.6-0.4-4.8-0.4l-3,0.1l-4.7-0.2c-1,0-2.2,0.5-3.3,1.4
			c0.1,0.8,0.3,1.9,0.6,3.2c0.1,0.3,0.1,0.6,0.1,0.9c0,0.6-0.2,1.5-0.6,2.7l-0.4,1.2h-1.3c0,0.1,0,0.2,0.1,0.3
			c0.1,0.1,0.4,0.4,0.9,1l0.6,0.7l-0.2,0.9c-0.1,0.4-0.2,0.9-0.2,1.5v2.1c0,0.1,0,0.7,0.4,2.8l0,0.1c0.1,0.7,0.1,1.4,0.1,2
			c0,0.5,0,1.3-0.1,2.3l-0.4,4.3l0.5,2.1l0.1,2.9c0.4,2.1,0.4,2.9,0.4,3.3c0,0.9-0.2,2.2-0.6,4.1l-0.3,1.4h-0.4l0,0.2
			c1,1,1.6,2,1.6,3.2l-0.1,3.9c0,0.2,0,0.6,0.1,1.6l0,0.8l-0.9,0.9v1.2l-0.3,0c0.4,1.1,0.6,2.1,0.6,3v0.3c0,0.5,0,1.1-0.1,1.8l0,0.1
			c0,0.2-0.1,0.4-0.1,0.6c0.8,4.1,0.8,4.3,0.8,4.5c0,0.9-0.3,1.7-0.8,2.6c1,0.2,1.9,0.5,2.7,0.9l0,0l0.5-0.6l1.3,0.6
			c1.2,0.5,2.5,1,4,1.2l0.2,0L222.9,259.1z M262.1,259.6L262.1,259.6L262.1,259.6z M260.9,258.9l0.7,0.5c0.1,0,0.1,0.1,0.2,0.1
			c0,0,0.1,0,0.1,0c0.3-0.2,0.9-0.4,2.8-1.1l-1-0.3c-0.2-0.1-0.3-0.1-0.4-0.1c-0.1,0-0.4,0.1-0.9,0.4c-0.5,0.3-1,0.5-1.6,0.7
			L260.9,258.9z M275.2,252.1c-2,1.5-4.9,3.1-8.7,4.8l-0.1,0c-0.3,0.1-0.6,0.3-0.7,0.4l-0.7,0.8c0.4-0.2,0.9-0.4,1.5-0.6
			c3.8-1.7,5-2.1,5.6-2.2c0.4-0.1,0.7-0.1,1-0.2l1.5-2.2C274.7,252.7,275,252.4,275.2,252.1z M199.8,255.3L199.8,255.3L199.8,255.3z
			 M203.3,249.7l6,1.6c-0.1-0.5-0.2-1.2-0.4-2l0-0.2V249c0-0.2,0-0.3,0.2-1.2c0.1-0.5,0.1-1,0.1-1.3v-0.3c0-0.2,0-0.5-0.1-0.8
			l-1.9,0.3l-1.1-4.2l0.2-0.3l-2.8,1.2c0.3,0.8,0.4,1.3,0.4,1.7v0.9l-0.1,3.7l-0.2,0.4C203.5,249.3,203.4,249.5,203.3,249.7z
			 M280.6,250l0.5,0.5c2.5-1.1,3.7-2,4.2-2.7c0.8-1.4,1-1.7,1.1-1.9l0.1-0.2l0.2-0.1c0.2-0.1,0.5-0.4,1.8-1.2l1.4-1.2l1-0.8
			c0.4-0.6,0.8-1.1,1.1-1.5c-0.8,0.5-2.2,0.8-4.6,1.2l-0.1,1l-1.1,0.4c-1.7,0.6-2,0.9-2,1c-0.2,0.2-0.7,0.9-1.6,1.9
			c-0.9,1.7-1.3,2.1-1.8,2.4l-0.1,0c-1.4,0.8-2.5,1.3-3.2,1.7c0.6-0.1,1.3-0.3,2.1-0.3L280.6,250z M202.7,249.5L202.7,249.5
			C202.7,249.5,202.7,249.5,202.7,249.5z M200.4,244C200.4,244,200.4,244,200.4,244L200.4,244z M288.4,236.7
			c3.2,0.4,4.5,0.9,4.5,2.5c0,0.2,0,0.3,0,0.5c0.7-1,1-1.5,1.2-1.7c0-0.1,0-0.3-0.1-0.6c-0.1-0.3-0.1-0.6-0.1-0.9c0-0.1,0-0.2,0-0.3
			c-0.5-0.4-0.7-0.9-0.8-1.5l-0.1-0.8l0.6-0.6c1.3-1.4,1.6-2,1.6-2.2l0-2.3l0.2-2c0-0.3-0.2-1.1-1.2-3.2l-0.1-0.1l0-0.2
			c-0.7-2.9-1-3.9-1.1-4.1c-0.2-0.5-0.5-1.1-0.9-1.6l-2.7,0.4l-0.2-1.8c0-0.4-0.1-0.7-0.1-1c0-0.9,0.3-1.7,1-2.5
			c-0.3-0.5-0.8-1.1-1.5-1.9l-0.1-0.1c-0.7-1-1.1-1.5-1.2-1.7c-0.2-0.1-0.5-0.3-1.2-0.7l-0.4-0.2l-0.8-1.2c-2-1.4-3.1-2.2-3.7-2.6
			l-1.4,1.4l-1.2-1.8c-0.5-0.8-0.8-1.4-0.8-2.1c0-0.1,0-0.2,0-0.4c-0.6-0.7-1.1-1.1-1.3-1.3c-1.3-0.9-3.4-2.3-6.4-4.3
			c-1.7-1.1-2.5-1.3-2.8-1.3c0,0-0.1,0.1-0.3,0.2l-1.3,1.3l-0.9-1l-1.6,0.7l-0.5-1.9l-1.5-0.7l-0.2-0.8c-0.1-0.3-0.2-0.4-0.2-0.5
			c-0.7-0.3-1.9-0.8-3.6-1.4c-0.4-0.1-0.8-0.3-1.1-0.3c-0.6,1.2-0.9,1.7-1.2,1.9l-0.9,1l-1.2-0.6c-1.7-0.8-2.6-1.9-2.6-3.2
			c0-0.2,0-0.4,0-0.6c-0.3-0.1-0.5-0.2-0.8-0.2l-0.1,0c-1.2-0.3-2.8-0.8-5-1.5c-1.4-0.5-2.6-0.8-3.5-0.8c-3-0.2-3.8-0.2-4.2-0.3
			c-0.6-0.1-1.2-0.4-2.1-0.8l-2.4-1.2l1.7-1.4l-8.8,1.8l-0.3,0.5c-0.7,0.9-1.3,1.7-1.7,2.2l0.6,0c0.1,0,0.3,0,5.2,0.5l0.2,0l2.1,0.4
			l1.2,0.2l1.8,0.4l2.5,0.4l2.2,0.9l2.7,0.9c0.3-0.1,0.7-0.3,1.5-0.7l1-0.5l0.9,0.7c0.5,0.4,1.2,0.8,2.1,1.1l0.2,0.1l3.4,1.8
			l5.2,1.5l1.2,0.6c1.1,0.4,2.1,0.9,3,1.4c0.3,0.1,0.5,0.2,0.6,0.2c1.8-0.8,2.1-0.8,2.5-0.8c0.9,0,1.7,0.4,2,1.2l0,0.1
			c0.4,0.9,0.6,1.3,0.7,1.6c0.1,0.1,0.3,0.2,0.6,0.3l0.1,0.1l1,0.6c0.9,0.3,1.8,0.8,2.7,1.4c0.3,0.2,0.6,0.4,0.8,0.6l0.1,0.1
			c0.4,0.3,0.5,0.4,0.7,0.5l0.2,0.2l0.1,0.2c0.2,0.3,0.3,0.5,0.4,0.6c0.3,0.2,0.9,0.5,2.4,1.4c0.6,0.3,1.2,0.6,1.8,0.9h0.2
			c0.8,0,1.4,0.5,1.9,1l0.1,0.1c0.8,0.8,0.9,1.6,0.9,2.1c0,0.1,0,0.3,0,0.5c2.6,2.6,4.3,4.4,5.2,5.6c3.5,4.5,3.9,6.2,3.9,7.4l0,0.1
			l0,1.2l1.1,2v3c0.1,0.1,0.2,0.3,0.3,0.6l0.9,1.4l-1.4,1.1c-0.1,0.5-0.2,1.1-0.4,1.7c-0.5,2.3-0.6,2.9-0.7,3l0,0.2L288.4,236.7z
			 M203.9,236.3l5.7,1.8l0-3.3c0,0-0.1-0.4-0.8-0.9l-0.6-0.5l-0.6-5.6h1.4c0.2-1.1,0.2-1.7,0.2-2c0-0.2,0-0.8-0.4-2.8l0-0.2
			l-0.1-2.6l-0.6-2.3l0.1-1.5l0.3-3.4c0.1-0.9,0.1-1.5,0.1-2c0-0.5,0-1-0.1-1.6c-0.4-2.3-0.4-3-0.4-3.4l0-2.3c0-0.4,0.1-0.9,0.1-1.3
			c-0.6-0.7-0.8-1-0.9-1.3l0-0.1c-0.1-0.3-0.2-0.7-0.5-2.7l-0.1-1l0.8-0.6c0.5-0.4,1-0.6,1.8-0.7c0.1-0.3,0.1-0.4,0.1-0.4
			c0-0.1,0-0.1,0-0.1l0-0.1c-0.4-2-0.6-3.4-0.8-4.4l-0.1-0.9l0.7-0.6c2.1-1.9,4.3-2.9,6.4-2.9l0.1,0l2.6,0.1
			c-0.3-0.5-0.4-1.2-0.4-2.1c-1-0.1-2-0.1-3-0.2l-0.2,0c-1.1-0.2-1.6-0.2-1.8-0.3l-1.3,0.1c-0.3,0-0.7-0.1-1.1-0.2
			c-0.3-0.1-0.9-0.2-1.9-0.5l-1.6-0.4l0.6-3.1v-8.8c-0.2-0.2-0.4-0.5-0.6-0.8h-1.2l-0.2-1.5c0-0.3-0.1-0.5-0.2-0.7l-1-1.5l1.3-1
			c0.6-0.5,0.8-0.8,0.8-0.9l0.4-6.8l0.1-0.2c0-0.1,0.1-0.4,0.7-1.6l0.5-1h2.5c0.6,0,1.5-0.1,2.5-0.4l0.2,0l4.3-0.4l0.8-0.1
			c-0.2-0.2-0.3-0.3-0.5-0.6c-0.8,0.1-1.1,0.1-1.3,0.1c-0.7,0-1.5-0.1-2.2-0.4c-1.3-0.4-1.9-0.4-2.1-0.4c0,0-0.1,0-0.1,0l-0.1,0
			c-3.6,0.5-4,0.5-4.2,0.5c-1.3,0-1.8,0-2.1,0c-2.4,1.1-3.4,1.3-4,1.3c-0.1,0-0.1,0-0.2,0l-0.5,2c-0.2,0.8-0.3,1.6-0.3,2.2
			c0,1.1,0.2,2.7,0.5,4.8l0,0l0.2,1.5c0.1,0.4,0.2,0.8,0.3,1.2l2.2-0.2l-0.6,3.8c0,0.6-0.2,1.2-0.6,1.7c-0.1,0.6-0.2,1.1-0.4,1.5
			l0,0c-0.2,0.3-0.3,0.6-0.3,0.8c0,0.1,0.1,1.1,0.8,5.6l0,0.2l-0.2,2.4l0.2,1.1v1.8l0.1,3.4l-0.1,0.2c-0.2,1-0.2,1.3-0.2,1.3
			c0,0.1,0,0.2,0,0.3l0.9-0.6l0.9,1.8c0.5,0.9,0.7,1.8,0.7,2.5c0,0.1,0,0.1,0,0.2c0.4,0.5,0.7,1.1,0.9,1.8l0.3,1.2l-1,0.7
			c-0.5,0.3-1,0.6-1.5,0.7l-0.1,0c0,0,0,0-0.1,0l0.1,2.4l-0.2,0.2c0.3,2.2,0.3,2.9,0.3,3.2c0,0.1,0,0.1-0.3,3.4l2.4,0.8l-2.1,2.4
			l0,3.5l-0.4,4.5c0,0.4,0.1,1,0.4,2.2c0.1,0.4,0.2,0.6,0.2,0.6c0.4,0.5,0.7,1.1,0.9,1.8l1,1l-1.1,1.2c-0.8,0.9-0.8,1.3-0.8,1.4
			c0,0.1,0,0.3,0,0.4l0,0c0.1,0.8,0.2,1.5,0.3,2.2l1.1,0.9v3l-1.1,0.5c-0.2,0.1-0.4,0.1-0.6,0.2c0,0.1,0,0.1,0,0.1l0,0.2
			C204,235.6,204,236,203.9,236.3z M294.2,237.7L294.2,237.7L294.2,237.7z M200.5,235.5C200.5,235.5,200.5,235.6,200.5,235.5
			L200.5,235.5z M289.8,228.4C289.8,228.4,289.8,228.4,289.8,228.4S289.8,228.4,289.8,228.4z M276,209L276,209L276,209z
			 M203.1,207.9L203.1,207.9L203.1,207.9z M215.2,181c1.6,0.1,3.3,0.2,4.9,0.3l1.3,0.1v-0.2l11.8-2.4c0.1,0,0.6-0.2,2-1.1l0.2-0.1
			l2.3-0.8l1.9-1.3c3.3-1.9,4.8-3,5.4-3.6c1.3-1.3,1.8-1.8,1.9-2l1-2.7c0.4-1.1,0.6-1.7,0.7-2c-0.1-0.1-0.2-0.2-0.4-0.4l-0.7-0.7
			l-0.4,0.2l-2.8-3c0,0-0.1,0-0.1,0c-0.6,0-1.5-0.1-2.6-0.4l-0.7-0.2l-0.4-0.6c-0.1-0.1-0.1-0.2-0.2-0.3l-5.3-1l-1.7-0.6l-1.7,0.3
			l-1.2-0.1h-1.7l-2.2-0.5l-3.9-0.2l-4.8,0.7l-4.3,0.4c-1.3,0.3-2.3,0.4-3.2,0.4h-0.2c0,0,0,0,0,0.1l-0.4,6.4c0,0.7-0.3,1.3-0.8,2
			l0.3,0.5c0.3,0.6,0.6,1,1.1,1.4l0.6,0.5l0,10.8c0.1,0,0.2,0.1,0.3,0.1c0.1,0,0.2,0,0.3,0.1l1.4-0.1
			C213.1,180.7,213.1,180.7,215.2,181z M239.3,180l-1.4,0.5c0.2,0,0.4-0.1,0.6-0.1L239.3,180z M241.5,178.5l-2.1,1.4l1.2-0.5
			c1.3-0.4,2.9-1.2,4.7-2.3l0.1-0.1c0.1,0,0.2-0.1,0.6-0.3v-1.1C244.9,176.5,243.4,177.4,241.5,178.5z M247.9,174.1h1.7
			c0.8-0.9,2-2.1,3.7-3.5l1.5-2.4c2.3-3.3,2.7-5.2,2.7-6.2c0-1-0.2-1.7-0.6-2.3c-0.2-0.1-0.8-0.4-2.5-0.9l-0.1,0
			c-5.3-2-6.5-2.2-6.7-2.2c-0.1,0-0.5,0-1.3,0.2l-0.9,0.1l-0.6-0.6c-0.4-0.4-0.7-0.6-0.8-0.6c-0.1,0-0.5,0-1.2-0.1l-0.1,0l-3.5-0.4
			h-2.2l-0.2,0c-2.5-0.5-4.8-0.8-6.6-0.8c-1.4,0-3-0.2-4.7-0.3c-0.2,0.1-0.4,0.2-0.5,0.3l2.2,0.1l2.1,0.5l1.5,0l0.9,0.1l2-0.3
			l2.4,0.8l5.9,1.1l0.2,0.1c0.4,0.2,0.6,0.5,1,1c0.6,0.1,0.9,0.1,1.1,0.1c0.1,0,0.2,0,0.7,0l0.9-0.1l2.3,2.5
			c0.9-0.4,1.1-0.4,1.4-0.4c0.4,0,0.9,0.1,1.5,0.4l1.6,0.7l-1,2.3c0.5,0.6,0.7,1.3,0.7,2c0,0.4,0,0.7-1,3.3l-1,2.8
			C250.2,171.6,249.9,172.1,247.9,174.1z M248.8,164.8C248.8,164.8,248.8,164.8,248.8,164.8C248.8,164.8,248.8,164.8,248.8,164.8z
			 M257,159.7L257,159.7L257,159.7z M198.1,155.1c-0.1,0-0.2,0.1-0.5,0.1c1-0.1,1.3-0.1,1.4-0.1l0.8-0.2c-0.2,0-0.4-0.1-0.5-0.1
			C199.1,154.8,198.8,154.9,198.1,155.1z"/>
	</g>
	<path class="st0" d="M328.5,204.3l1.4-0.2l4.4-1.5l3.5-0.3l2.1-0.9l1-0.2h4c0.9,0,1.7,0.2,2.4,0.7c0.7,0.5,1.3,1.2,1.9,2.1h-4
		c0.2,0,0.4,0,0.6-0.1c0.2-0.1,0.3-0.1,0.4-0.2c0.1,0,0.1,0,0.2-0.1c0-0.1,0.1-0.1,0.2-0.2c0-0.1,0-0.2,0.1-0.3
		c0-0.1,0.1-0.2,0.2-0.3h4l1.3,1.2l1.8,0.9l4.1,4.1c0.5,0.8,1,1.5,1.4,2.1c0.4,0.6,0.7,1,0.9,1.4c0.1,0.4,0.3,1,0.6,1.7
		c0.3,0.7,0.6,1.6,0.9,2.7l0.4,1.1l-0.5,0.3h-4l-1.9-0.4h4l-2.1,0.6h-4l-1.6-0.3h4l-1.8,0.6h-4l-1.9-0.3l-0.8,0.1h-4l-3.1-0.6h-1.9
		h-4l-2.7-0.1h4l-6.6,1h-4l-2.4-0.1h4l-3.3,0.9l-1.1,0.2l-0.2,1.2c-0.1,0.4-0.1,0.7-0.2,1c0,0.3-0.1,0.5-0.2,0.6
		c-0.1,0.1-0.1,0.2-0.2,0.3c-0.1,0.1-0.1,0.2-0.2,0.3c-0.1,0.1-0.3,0.2-0.4,0.3c-0.1,0.1-0.3,0.2-0.4,0.3l0.1,0.9
		c0.5,0.4,0.9,0.7,1.2,1c0.3,0.3,0.4,0.5,0.5,0.6l1.3,5l0.7,1.2l-0.6,0.8l0.1,0.1v0.2l1.9,0.6l0.4,1.1c0.2,0.7,0.4,1.2,0.7,1.5
		c0.2,0.3,0.5,0.6,0.8,0.7l2.5,1l1,1.9c0.1,0.1,0.4,0.3,0.7,0.4c0.3,0.1,0.8,0.2,1.4,0.2l0.7,1.3l1.5,0.2l2.9,1l0.8-0.1l9.3-1.5
		l2.1-1.3l3-1.9l2.6-3.3c0.2-0.3,0.4-0.6,0.7-0.7c0.3-0.1,0.6-0.2,1-0.2h4c0.5,0,0.9,0.1,1.2,0.4c0.3,0.2,0.4,0.6,0.4,1.2
		c0,0.3,0,0.5,0,0.7c0,0.2-0.1,0.4-0.2,0.5l-1,1.6l-2.2,4l-2.1,0.1l-1.4,1.2c-0.2,0.1-0.4,0.3-0.7,0.4c-0.2,0.1-0.5,0.2-0.9,0.3
		l-8.8,1.5l-1.4,0.5h-4l-1.2-0.1l-2.4,0.2h-4l-5.1-0.3h-1.3c-0.4-0.3-0.7-0.5-1-0.6c-0.2-0.1-0.4-0.1-0.5-0.2l-4.7-1.7l-1.7-1.6
		l-3.2-2.1l-2.4-3.5l-1.1-0.8c0.2-0.4,0.4-0.8,0.5-1.1c0.1-0.3,0.2-0.6,0.2-0.9l-0.1-0.6l-1.4-2.1l-0.3-2.8l-0.1-2.2
		c0-0.4,0-0.9,0.1-1.4c0.1-0.5,0.2-1.1,0.4-1.7c0.3-0.9,0.5-1.7,0.8-2.3c0.2-0.6,0.5-1,0.7-1.3l1.8-2.3l1-2.1l2.2-2.2l2.6-3.3
		l2.2-1.2l3.1-2.1l2.2-1.5L328.5,204.3z M330.2,213.6h4l1,0.1l1.1,0.3l1.2-0.3l1.1-0.2h4l0.4,0.6l1.7-0.4h4l1.8,0.3h-4
		c0.4,0,0.7-0.1,0.9-0.3c0.2-0.2,0.3-0.5,0.3-0.8c0-0.2-0.2-0.6-0.5-1.2c-0.3-0.6-0.7-1.3-1.3-2.2l-3.5-2.4l-1-1.2h-1.7l-0.7-0.1
		l-1.9,1.1l-2.8,0.6l-3.4,1.4l-1.2,0.4l-1.6,2.4c-0.5,0.3-0.8,0.5-1.1,0.7c-0.3,0.2-0.4,0.4-0.5,0.5l-0.3,0.7l2.8,0.2L330.2,213.6z"
		/>
	<path class="st0" d="M386.9,224c0.6-0.4,1.4-0.6,2.3-0.6l0.3-0.3h4l1.1,0.1h-4c0.2-0.3,0.4-0.5,0.6-0.7c0.2-0.2,0.4-0.3,0.5-0.4
		c0.1-0.1,0.4-0.2,0.9-0.3c0.4-0.1,1-0.2,1.7-0.4l6.2-1.2h4l1.8,0.2h-4l2.3-0.4l4.1-0.4c0.3-0.1,0.5-0.2,0.8-0.3
		c0.2-0.1,0.5-0.3,0.8-0.5c0.1-0.1,0.3-0.3,0.4-0.5c0.1-0.2,0.2-0.4,0.2-0.7v-0.3v-0.1l-0.5-2.2l0.3-3.2c-0.1-0.6-0.3-1.1-0.8-1.5
		c-0.4-0.4-1-0.6-1.8-0.7l-0.7-1.1c-0.4-0.6-0.7-1.1-1-1.5c-0.3-0.4-0.5-0.7-0.7-0.9c-0.1-0.1-0.3-0.1-0.5-0.2
		c-0.2-0.1-0.4-0.1-0.6-0.2c-0.2,0-0.4,0-0.7-0.1c-0.2-0.1-0.5-0.1-0.9-0.2l-2.7-0.6l-0.2,0.1h-4c-0.3-0.1-0.5-0.3-0.7-0.6
		c-0.2-0.2-0.3-0.6-0.5-1h4l-1.3,0.6l-1.5,1.5l-4.8,2.4c-0.5,0.3-0.9,0.5-1.3,0.8c-0.4,0.3-0.6,0.5-0.8,0.8l-0.6,0.9
		c-0.2,0.3-0.4,0.5-0.6,0.6c-0.2,0.1-0.5,0.2-0.8,0.2h-4l-1-0.2l-1.3-0.6l-1.6-0.4c-0.3-0.1-0.5-0.3-0.8-0.4
		c-0.3-0.1-0.5-0.3-0.7-0.5c-0.3-0.1-0.5-0.3-0.6-0.5c-0.1-0.2-0.2-0.4-0.2-0.6l0.1-0.3l0.8-0.6l1.6-1.1l1.8-0.4l2.6-1.2l3.2-1.1
		l0.9-0.2l2-1.1h4l1.8,0.2h-4l5.9-1.3h4l2.5,0.2h-4l1.9-0.1h4l1.9,0.8l5.9,1l0.8,0.6v0.7l-0.7,0.4c0.1,0.5,0.3,0.9,0.5,1.2
		c0.2,0.3,0.4,0.4,0.7,0.4h-4l0.4-0.1l1.4-0.5l0.1-0.1h4h0.1c0.1,0,0.3,0.1,0.4,0.2c0.1,0.1,0.2,0.2,0.3,0.4l0.9,1.8l1,0.8l0.1,1.2
		l-0.3,2.4c0,0.5,0.1,1,0.4,1.5c0.3,0.5,0.7,0.9,1.3,1.3l0.6,7.3l-1.4,1.8l1.6,1.8v0.5l-0.2,4.7l0.3,3.5l0.1,0.8l-0.1,1.1l-0.7,0.2
		c0,0.5,0,0.9,0,1.2c0,0.3,0.1,0.6,0.2,0.7c0.1,0.1,0.2,0.4,0.4,0.8c0.2,0.4,0.4,0.9,0.7,1.5l0.8,1.5l-0.6,1l-0.7,1.1l-1.5,0.6l-2,1
		l-1.9,0.5c-0.6,0.1-1.1,0.3-1.4,0.4c-0.3,0.1-0.6,0.2-0.7,0.2l-4,0.1l-0.6-0.3l-0.3-0.7c0-0.3,0-0.5,0.1-0.8
		c0.1-0.3,0.2-0.6,0.3-1.1l-0.9,0.3c-0.5,0.2-0.9,0.4-1.4,0.5c-0.5,0.1-0.9,0.2-1.3,0.2h-4l-2-0.1h4l-2.2,1l-1.6,0.2l-4.5,1h-4
		l-2-0.3h4l-1.2,0.5l-1,0.1h-4l-1.4-0.1l-3.2-0.7l-2.3-0.1c-1.6-0.3-2.9-0.9-4-1.6c-1-0.7-1.8-1.7-2.4-3l-1.2-0.6l-0.4-1.1l-0.1-1
		l-0.6-2.2l1.8-3.7l0.5-1.6l0.6-0.8c0.1-0.1,0.3-0.3,0.5-0.5c0.2-0.2,0.5-0.4,0.8-0.7l3.8-3.1l1.6-0.5l2.7-1.1h4h-0.1
		c0.1,0.1,0.1,0.1,0.2,0.1c0.1,0,0.2,0,0.3,0h-4C385.8,224.9,386.3,224.3,386.9,224z M384.8,234l-0.2,0.5l1.1,4.4l-1.1,2.8l0.9,0.9
		h-4l1.2-1.6h4c0.3,0.3,0.7,0.5,1.1,0.8c0.4,0.3,0.7,0.5,1,0.6c0.2,0.1,0.6,0.3,1.1,0.5c0.5,0.2,1.1,0.3,1.9,0.5l0.8,1.1l0.4-0.4h4
		l0.2,0.1c0.5-0.1,1-0.2,1.5-0.4c0.5-0.2,1.1-0.5,1.8-0.8l0.5-0.3l0.3-0.1l0.3-0.2c0.8,0,1.5-0.1,2.2-0.2c0.6-0.1,1.2-0.2,1.7-0.4
		c0.3-0.1,0.7-0.3,1.1-0.5c0.4-0.2,0.7-0.5,1-0.8l1.1-1.3l2.3-2l0.1-0.7v-0.6c0.2-0.1,0.4-0.3,0.6-0.4c0.2-0.1,0.3-0.2,0.4-0.4
		c0.1-0.1,0.1-0.3,0.2-0.5c0-0.2,0.1-0.4,0.1-0.7c-0.3-0.3-0.5-0.5-0.6-0.7c-0.1-0.2-0.2-0.4-0.2-0.5l0.2-2l-0.5-4.4l0.6-1.3
		l-1.6-0.9h4l-0.8,0.1h-4l-2.1-0.1h-0.5h-4l-0.6-0.4h-0.6l-1.9,0.6h-4l-1.2-0.6h4l-1.3,0.9l-7.4,3.5l-1.5,1.2l-1.4,1.8l-1.6,1
		c-0.2,0.2-0.3,0.4-0.4,0.5c-0.1,0.1-0.1,0.3-0.1,0.4l0.1,0.3L384.8,234z"/>
	<path class="st0" d="M452.6,204c-0.3,0.9-0.5,1.7-0.7,2.6c-0.2,0.8-0.3,1.7-0.3,2.6l0.2,2.8v1.1l-0.9,2.5c-0.1,0.8-0.1,1.4-0.2,1.9
		c0,0.4-0.1,0.7-0.1,0.9c0,0.3,0,0.5,0.1,0.8c0.1,0.2,0.2,0.5,0.3,0.7l0.8,1.4l-1.2,3.8l0.5,1.1l-0.4,2.2l-0.5,2.8l0.1,0.5l0.7,1.3
		l0.3,5.1c0.1,0.5,0.3,0.9,0.6,1.3c0.2,0.4,0.5,0.7,0.9,0.9c0.3,0.3,0.8,0.5,1.5,0.8c0.7,0.2,1.4,0.5,2.3,0.8l3.7,0.9
		c0.1,0,0.1,0,0.2,0.1c0.1,0,0.1,0.1,0.2,0.1c0.1,0,0.1,0,0.2,0c0.1,0,0.1,0.1,0.2,0.1c0.1,0,0.1,0,0.2-0.1c0.1,0,0.2,0,0.3,0
		c0.1,0,0.1,0,0.2-0.1c0.1,0,0.1-0.1,0.2-0.1l2.8-1.1h4l3,0.7h-4c0.2-0.1,0.4-0.2,0.6-0.5c0.2-0.3,0.3-0.6,0.4-1.1l1.6-0.9l2.1-3
		l1.8-1.4c0.3-0.3,0.6-0.7,0.7-1.2c0.1-0.5,0.2-1,0.3-1.6l0.4-5l0.3-1l-1-1.2l0.1-1.7l0.1-7.7l-0.2-2.6l-0.6-3
		c0-0.2,0.1-0.5,0.3-0.8c0.2-0.3,0.4-0.6,0.8-1l-0.2-0.9l-0.8-0.1l-0.3-1.5v-0.3l0.4-1.5l0.1-1.1h4l0.7,0.2h-4l5.5-1.9h4h0.1
		c0.2,0,0.4,0.1,0.6,0.3c0.2,0.2,0.3,0.4,0.4,0.8c0.1,0.3,0.2,0.6,0.3,1c0.1,0.4,0.1,0.8,0.1,1.2l-0.4,10l-0.6,7.5h-4l-1.4-0.4h4
		c-0.2,0.4-0.3,0.8-0.4,1.1c-0.1,0.3-0.1,0.6-0.1,0.8l0.2,1h-4c0.2-0.1,0.4-0.1,0.6-0.2c0.2,0,0.3-0.1,0.4-0.1h4c0.1,0,0.1,0,0.2,0
		c0.1,0,0.1,0,0.2,0.1c0.1,0.1,0.2,0.1,0.3,0.1l0.3,0.6l-0.4,9.2l0.9,1.8l0.6,4.7c0.1,0.1,0.2,0.2,0.3,0.4c0.1,0.2,0.3,0.4,0.5,0.6
		l0.4,0.5l0.5,0.7c-0.2,0.5-0.4,0.8-0.7,1.1c-0.3,0.3-0.6,0.5-0.9,0.6l-5.5,2.4h-4c-0.5-0.3-0.9-0.7-1.2-1.2c-0.3-0.4-0.4-1-0.4-1.7
		l0.1-1.5l-4.6,2.3l-1.8,0.8l-5.8,1l-1.9,0.7h-4h-0.5l-0.7-0.1l-1.8-0.8h4l-2.2,0.7h-4l-1.5-1.3l-0.5,0.1h-4c-0.5-0.1-1-0.3-1.6-0.6
		c-0.6-0.3-1.3-0.9-2-1.6c-0.7-0.8-1.2-1.6-1.6-2.4c-0.4-0.8-0.6-1.6-0.6-2.5c0-0.3,0.1-0.6,0.3-0.9c0.2-0.2,0.4-0.5,0.7-0.8
		l-1.5-0.7l-0.1-1.8l-0.1-2.6c0-0.3,0-0.7,0.1-1c0.1-0.3,0.1-0.7,0.2-1l1-1.7l-1-2.7l0.2-3l-0.2-3.3l0.1-0.4
		c0.1-0.1,0.1-0.2,0.2-0.4c0.1-0.2,0.1-0.4,0.2-0.7c0.1-0.3,0.3-0.7,0.4-1c0.1-0.3,0.2-0.6,0.3-0.9v-0.7h4l-1,0.4h-4l-0.6-0.6l0.1-1
		l0.1-5.9c0-0.5,0-1-0.1-1.3c0-0.3-0.1-0.6-0.3-0.8l-0.4-0.7l-0.1-0.3c0-0.3,0.1-0.5,0.3-0.8c0.2-0.2,0.5-0.5,0.9-0.7l0.6-0.3
		l3.5-1.6c0.6-0.2,1.1-0.4,1.6-0.5c0.4-0.1,0.8-0.2,1-0.2h4c0.2,0,0.4,0.1,0.6,0.4c0.2,0.2,0.4,0.6,0.6,1L452.6,204z"/>
	<path class="st0" d="M509.7,203.8l-0.1-1.1l-0.2-10.5l-1.2-2.7l-0.4-1.5c0.5-0.7,1.1-1.4,1.6-1.9c0.5-0.5,1-0.9,1.5-1.2
		c0.5-0.3,1-0.6,1.7-0.8c0.6-0.2,1.4-0.3,2.2-0.4c0.3-0.5,0.6-0.9,0.9-1.2c0.2-0.2,0.5-0.4,0.8-0.4h4c0.4,0,0.7,0.4,1,1.1
		c0.2,0.7,0.4,1.8,0.4,3.2c0,1.1,0,2.1,0,3.1c0,1-0.1,1.9-0.3,2.7c-0.1,0.9-0.2,1.6-0.4,2.3c-0.2,0.6-0.4,1.2-0.6,1.7
		c-0.1,0.1-0.1,0.3-0.2,0.4c0,0.1-0.1,0.3-0.2,0.4c-0.1,0.2-0.1,0.4-0.2,0.5c-0.1,0.1-0.1,0.3-0.2,0.4c-0.1,0.1-0.2,0.1-0.3,0.2
		c-0.1,0.1-0.3,0.1-0.4,0.1l0.1,2.3c0.3,0,0.6,0.1,0.9,0.2c0.2,0.1,0.5,0.3,0.7,0.5l-0.3,1.3l0.2,1.2l1.1,0.1l4.3,1l1.6-0.5l3.6-0.4
		l2.9-1l0.9-0.1h4h0.4h1.1l0.1,0.2h0.1v0.2l-0.5,1.4l-0.2,1l-3.5,2.6l-2,1.8l-1.3,0.3h-4l-1.8-0.2c-0.8-0.1-1.5-0.3-2.1-0.4
		c-0.6-0.1-1.1-0.2-1.5-0.3h-0.5h-4l-1.9-0.4h4c-0.2,0.1-0.4,0.1-0.6,0.2c-0.2,0.1-0.4,0.2-0.6,0.3c-0.1,0.1-0.2,0.3-0.3,0.5
		c-0.1,0.2-0.1,0.4-0.1,0.6c0,0.2,0,0.4,0.1,0.5c0.1,0.1,0.2,0.2,0.4,0.2l-0.1,6.3c-0.7,0.2-1.2,0.5-1.6,0.8
		c-0.4,0.3-0.6,0.7-0.6,1.1l0.2,1.2l1.9,0.4l0.2,4.6l0.1,1.1L520,228h-4c-0.3-0.1-0.5-0.1-0.7-0.2c-0.2,0-0.3,0-0.5,0h4
		c-0.1,0-0.3,0-0.4,0c-0.1,0-0.3,0.1-0.4,0.3c-0.1,0.1-0.2,0.3-0.3,0.4c-0.1,0.1-0.1,0.3-0.1,0.4c0,0.2,0.1,0.4,0.2,0.7
		c0.1,0.2,0.3,0.5,0.6,0.9h-4c0.2-0.3,0.4-0.5,0.6-0.6c0.2-0.1,0.3-0.2,0.4-0.2h4c0.1,0,0.3,0.1,0.4,0.2c0.1,0.1,0.3,0.3,0.5,0.5
		l0.1,6.6l0.2,1l1.2,2.3c0,0.1,0,0.2,0,0.3c0,0.1,0,0.2,0.1,0.4c0,0.1,0,0.3,0,0.5c0,0.2,0,0.4,0,0.6c0.1,0.1,0.3,0.2,0.4,0.3
		c0.1,0.1,0.3,0.2,0.5,0.3c0.1,0.1,0.3,0.1,0.4,0.2c0.1,0.1,0.3,0.1,0.4,0.2c0.1,0,0.2,0,0.3-0.1c0.1,0,0.2-0.1,0.3-0.2
		c0.1,0,0.2,0,0.3-0.1c0.1,0,0.2-0.1,0.3-0.2c0.5-0.2,1-0.4,1.5-0.6c0.4-0.2,0.8-0.4,1.1-0.7l4.8-4.3c0.1-0.1,0.3-0.2,0.4-0.3
		c0.1,0,0.2-0.1,0.4-0.1h4c0.2,0,0.5,0.1,0.8,0.2c0.3,0.1,0.6,0.3,1,0.5l-0.3,1c-0.3,1.3-0.5,2.4-0.8,3.1c-0.3,0.7-0.5,1.1-0.8,1.3
		l-11.6,4.1l-1.9,1.1h-4l-1.5-0.9l-1.1-0.2h4l-0.5,1.3l-0.9,0.1h-4c-0.5-0.1-1-0.2-1.6-0.5c-0.6-0.2-1.2-0.6-1.8-1.2
		c-0.7-0.4-1.2-0.8-1.6-1.2c-0.4-0.4-0.6-0.7-0.6-1l-0.4-1.4l-0.5-1.8l0.1-2.7l-0.1-3l1-3.3l-0.3-1.2l-0.2-1.6l0.1-1.2l0.1-4.7
		l-0.1-1.3l-0.1-1.6l0.1-0.3l1.2-1.4l0.2-0.6c0-0.3-0.2-0.6-0.5-0.8c-0.3-0.2-0.7-0.3-1.3-0.3l-0.4-0.7c0.1-0.6,0.2-1.2,0.3-1.8
		c0.1-0.6,0.1-1.2,0.2-1.8c0-0.5,0-1.1,0-1.7c0-0.6,0.1-1.2,0.1-1.8c-0.3-0.1-0.7-0.1-1-0.2c-0.3,0-0.6-0.1-0.9-0.2
		c-0.7,0.1-1.3,0.2-2,0.4c-0.6,0.2-1.3,0.4-2,0.6h-4c-0.1-0.1-0.1-0.3-0.2-0.4c-0.1-0.1-0.1-0.3-0.1-0.5c0-0.3,0-0.5,0.1-0.7
		c0.1-0.2,0.1-0.3,0.2-0.4l1.9-1.5l0.4-1.2c0.1-0.3,0.3-0.5,0.5-0.6c0.2-0.1,0.4-0.2,0.6-0.2l5.6-0.2L509.7,203.8z"/>
	<path class="st0" d="M565.1,204.3l1.4-0.2l4.4-1.5l3.5-0.3l2.1-0.9l1-0.2h4c0.9,0,1.7,0.2,2.4,0.7c0.7,0.5,1.3,1.2,1.9,2.1h-4
		c0.2,0,0.4,0,0.6-0.1c0.2-0.1,0.3-0.1,0.4-0.2c0.1,0,0.1,0,0.2-0.1c0-0.1,0.1-0.1,0.2-0.2c0-0.1,0-0.2,0-0.3c0-0.1,0.1-0.2,0.2-0.3
		h4l1.3,1.2l1.8,0.9l4.1,4.1c0.5,0.8,1,1.5,1.4,2.1c0.4,0.6,0.7,1,0.9,1.4c0.1,0.4,0.3,1,0.6,1.7c0.3,0.7,0.6,1.6,0.9,2.7l0.4,1.1
		l-0.5,0.3h-4l-1.9-0.4h4l-2.1,0.6h-4l-1.6-0.3h4l-1.8,0.6h-4l-1.9-0.3l-0.8,0.1h-4l-3.1-0.6h-1.9h-4l-2.7-0.1h4l-6.6,1h-4l-2.4-0.1
		h4l-3.3,0.9l-1.1,0.2l-0.2,1.2c-0.1,0.4-0.1,0.7-0.2,1c0,0.3-0.1,0.5-0.2,0.6c-0.1,0.1-0.1,0.2-0.2,0.3c-0.1,0.1-0.1,0.2-0.2,0.3
		c-0.1,0.1-0.3,0.2-0.4,0.3c-0.1,0.1-0.3,0.2-0.4,0.3l0.1,0.9c0.5,0.4,0.9,0.7,1.2,1c0.3,0.3,0.4,0.5,0.5,0.6l1.3,5l0.7,1.2
		l-0.6,0.8l0.1,0.1v0.2l1.9,0.6l0.4,1.1c0.2,0.7,0.4,1.2,0.7,1.5c0.2,0.3,0.5,0.6,0.8,0.7l2.5,1l1,1.9c0.1,0.1,0.4,0.3,0.7,0.4
		c0.3,0.1,0.8,0.2,1.4,0.2l0.7,1.3l1.5,0.2l2.9,1l0.8-0.1l9.3-1.5l2.1-1.3l3-1.9l2.6-3.3c0.2-0.3,0.4-0.6,0.7-0.7
		c0.3-0.1,0.6-0.2,1-0.2h4c0.5,0,0.9,0.1,1.2,0.4c0.3,0.2,0.4,0.6,0.4,1.2c0,0.3,0,0.5-0.1,0.7c0,0.2-0.1,0.4-0.2,0.5l-1,1.6l-2.2,4
		l-2.1,0.1L593,244c-0.2,0.1-0.4,0.3-0.7,0.4c-0.2,0.1-0.5,0.2-0.9,0.3l-8.8,1.5l-1.4,0.5h-4l-1.2-0.1l-2.4,0.2h-4l-5.1-0.3h-1.3
		c-0.4-0.3-0.7-0.5-1-0.6c-0.2-0.1-0.4-0.1-0.5-0.2l-4.7-1.7l-1.7-1.6l-3.2-2.1l-2.4-3.5l-1.1-0.8c0.2-0.4,0.4-0.8,0.5-1.1
		c0.1-0.3,0.2-0.6,0.2-0.9l-0.1-0.6l-1.4-2.1l-0.3-2.8l-0.1-2.2c0-0.4,0-0.9,0.1-1.4c0.1-0.5,0.2-1.1,0.4-1.7
		c0.3-0.9,0.5-1.7,0.8-2.3c0.2-0.6,0.5-1,0.7-1.3l1.8-2.3l1-2.1l2.2-2.2l2.6-3.3l2.2-1.2l3.1-2.1l2.2-1.5L565.1,204.3z M566.8,213.6
		h4l1,0.1l1.1,0.3l1.2-0.3l1.1-0.2h4l0.4,0.6l1.7-0.4h4l1.8,0.3h-4c0.4,0,0.7-0.1,0.9-0.3c0.2-0.2,0.3-0.5,0.3-0.8
		c0-0.2-0.1-0.6-0.4-1.2c-0.3-0.6-0.7-1.3-1.3-2.2l-3.5-2.4l-1-1.2h-1.7l-0.7-0.1l-1.9,1.1l-2.8,0.6l-3.4,1.4l-1.2,0.4l-1.6,2.4
		c-0.5,0.3-0.8,0.5-1.1,0.7c-0.3,0.2-0.4,0.4-0.5,0.5l-0.3,0.7l2.8,0.2L566.8,213.6z M570.8,195.1c0.1-0.5,0.3-1,0.4-1.5
		c0.1-0.4,0.3-0.9,0.5-1.3c0.1-0.4,0.3-0.8,0.4-1.1c0.1-0.3,0.3-0.6,0.4-0.9l1.9-3.1c0.4-0.7,0.7-1.3,1-1.8c0.2-0.4,0.4-0.7,0.4-0.9
		l-0.2-1.7l-0.8-0.6l1-1.8l2.3-0.1l5.2-0.9h4h0.3c0.2,0,0.4,0.1,0.7,0.2c0.3,0.1,0.5,0.3,0.8,0.5l-0.6,0.8l-2.6,4.5l-1.8,2.1
		l-1.2,1.2l0.2,0.6l-0.6,1.1l-2,3l-1.9,1.6l-0.6,1h-4h-0.3V196h-2.7L570.8,195.1z"/>
</g>
<g>
	<path class="st0" d="M123.7,179.8c4.9-3.3,4.7-5.9,4.7-8.3c-0.7-10.4-10.6-15.6-17-15.5c-4.9,9.2-5.9,22.6,4.5,26.1
		c3,0.5,5.7-1,5.7-1c0.2-5,2.3-10.8-5.7-18.2C125.1,167.4,123.7,179.8,123.7,179.8z"/>
	<g>
		<circle class="st0" cx="67.4" cy="131.3" r="6.8"/>
		<circle class="st0" cx="91.4" cy="124.2" r="4.2"/>
		<path class="st0" d="M88.3,140.2c-6.8,0-12.2,5.4-12.2,12.2c0,6.8,5.4,12.2,12.2,12.2s12.2-5.4,12.2-12.2
			C100.4,145.6,94.9,140.2,88.3,140.2z M88.3,160c-4.2,0-7.6-3.5-7.6-7.6c0-4.2,3.5-7.6,7.6-7.6s7.6,3.5,7.6,7.6
			C95.9,156.5,92.5,160,88.3,160z"/>
		<path class="st0" d="M78.6,99.4c-5.4,0-9.6,4.3-9.6,9.6s4.3,9.6,9.6,9.6s9.6-4.3,9.6-9.6S83.8,99.4,78.6,99.4z M78.6,113.9
			c-2.8,0-5-2.3-5-5s2.3-5,5-5s5,2.3,5,5S81.3,113.9,78.6,113.9z"/>
		<path class="st0" d="M70.4,40.8c-6.1,0-10.9,4.9-10.9,10.9s4.9,10.9,10.9,10.9s10.9-4.9,10.9-10.9S76.5,40.8,70.4,40.8z
			 M70.4,58.4c-3.5,0-6.4-3-6.4-6.4s3-6.4,6.4-6.4s6.4,3,6.4,6.4C76.8,55.4,73.9,58.4,70.4,58.4z"/>
		<circle class="st0" cx="94.7" cy="40.8" r="6.6"/>
		<circle class="st0" cx="80.8" cy="19.1" r="4.3"/>
	</g>
	<path class="st0" d="M97.1,104L97,84.6h5.2V72.4H55.3v12.2h5.2v20.8c0,0-20,3-40.5,24.5C0,151.1,0,188.5,0,188.5
		s1.7-66.9,63.9-79.6V84.6h29.4v26.6c0,0,46.2,7.6,54.5,59.4c-20.7,7.8-25.7,21.5-15.8,44.6c0,0,1.2-1.4,2.4-3.1
		c-1-1.9-3.1-6.3-1.6-17.5l2.8,14.9c0,0,2.6-3.1,4.3-5.9c0,0-5-8.3-3.1-19.6c0,0,1.2,11.5,4.5,16.7c3.6-3.3,2.6-9.2,2.6-9.2
		s-4-5.7-2.8-11.1c0,0,1.7,6.3,4.2,9.2c1.7,0.2,1.4-3.3,3.5-9.4c-1.4,48.3-37.5,65.7-51.4,69.7c-5.4,1.6-39.3,6.6-55.2-10.9
		c5,3.5,30.2,15.5,52.5,6.6c-3.1-1.6-5.7-3.1-19.1-12c-26.4-0.9-40-3-52.6-19.5c5.4,4,18.9,14.2,46.9,14.4c0,0-3.6-3.3-18.2-16.5
		c-4.3,1-25-2.6-32.3-14.9c0,0,15.8,11.1,30.1,11.8c0,0-6.8-6.8-23.8-30.2c0,0,9.6,9.7,24.8,26.2c0.2-7.5,0.7-17.5-6.8-27.6
		c6.8,6.3,14.9,18.1,10.1,31.8c0,0,3,2.4,18.6,14.9c0.2-10.1,3.8-21.2-8.9-39.3c10.1,8,18.9,25,12.5,42.9c0,0,4.9,3.5,18.9,11.8
		c1.7-7.6,6.1-19.6-6.3-37.9c12,10.6,15.5,26.9,11.6,41.9c14.9-3.6,24.1-15.5,24.3-24c0-6.3,1-12.3-11.8-29.2l-0.5,9.4
		c0,0-4.2-11.5-15.1-20l-0.2,7.1c0,0-8.5-10.1-17.7-13v5.9c0,0-10.4-9.7-23.4-10.4c0,0,1.7,4.2,1.2,6.1c0,0-9.2-8-20.3-8.9
		c0,0,0.7,4,0.7,6.4c-2.4-2.4-12-5.2-21-5.4c0,0-3.3,6.8-1.6,19.1l-5.9-3.6c0,0,0,12.3,3.5,19.6L7,200.1c0,0-2.6,10.1,9.6,21.5H9.3
		c0,0,1.9,8.5,14.6,16.7h-6.8c0,0,8.5,11.5,27.1,15.6l-12.3-0.7c0,0,29.5,18.1,69,6.4c55.1-19.1,57.7-65.8,57.7-77.8
		C158.5,168,152.6,119,97.1,104z M59.8,80.2v-3.6H98v3.6H59.8z"/>
</g>
</svg>
